<?xml version="1.0" encoding="UTF-8"?>
<svg version="1.1" viewBox="0 0 2417 2982" width="2417" height="2982" xmlns="http://www.w3.org/2000/svg">
<path transform="translate(1207)" d="m0 0 5 1v524l7-6 79-79-3-1v-329l5 1 1 326 93-93 4 2 434 434-6 7-282 282 2 4 43 43 6-4 17-14 14-11 16-13 13-10 18-14 20-15 21-16 8-7 120-120h2v38l44-26 27-15 33-17 33-15 34-13 46-15 41-11 41-9 43-7 36-4 35-2h31l32 2 29 4 25 6 19 7 11 6 7 6 4 8 2 13v13l-3 26-5 25-8 32-13 42-13 37-14 35-13 30-14 29-13 25-12 20-29 43-13 19-10 14-14 19-13 16-9 11-10 11-7 8-26 26-11 9-15 12-18 12-16 9-21 10-21 7-22 5-16 2h-21l-14-2v-4l9-4 7-2-5-5-3-5 1-9 8-9 8-4 12-3h25l18 3v-2l-12-1-19-3h-9l-15 5-15 8-13 10-6 7-4 8v7l-6 2 7 2 42 7 28 6 25 7 19 8 13 8 11 10 7 11 4 11 2 13-2 21-5 20-8 21-8 17-13 22-11 16-11 14-13 15-24 24-22 18-20 14-20 12-27 14-26 11-6 1v385l-4-2-77-77-1 79-4-2-225-225 1-4 52-52-16 6-25 6-24 3-14 1-3 2-2-2-30-1 39 39-6 7-43 43 6 7 282 282-6 7-431 431-7-6-87-87-1 320h-5l-1-327-81-81-1 515h-5l-1-509-81 81-1 321h-5l-1-314-87 87-7-6-431-431 6-7 282-282-6-7-43-43 2-4 36-36-38 2-2 1-9-2-27-3-23-5-12-4-1 1 49 49-6 7-222 222h-1l-1-80-80 80h-1v-383l-6-1-27-11-19-9-23-13-18-12-14-10-11-9-14-13-8-7-8-8-7-8-12-14-13-18-12-19-12-23-8-19-6-20-3-18v-15l3-13 6-12 9-10 7-6 14-8 14-6 23-7 32-7 49-8 1-1-6-2-1-9-6-9-8-8-15-10-19-8-4-1h-9l-31 5 18-2h24l13 3 10 6 6 8v10l-5 5-2 3 15 5 2 3-5 3-10 1h-21l-27-4-24-7-24-10-20-11-12-8-19-14-15-13-16-15-8-8-7-8-11-12-9-11-11-14-16-21-13-19-12-17-29-44-9-15-13-24-16-33-15-35-13-34-12-34-8-24-11-42-2-9-1-4-5-29-1-10v-23l3-12 8-9 17-9 18-6 22-5 29-4 32-2h30l36 2 36 4 37 6 38 8 32 8 40 12 35 12 27 11 26 12 38 19 23 13 26 15 24 15 1-41 7 6 133 133 19 14 14 11 13 10 14 11 16 13 14 11 17 14 7 5 49-49-6-7-69-69-6 1-5 3h-3v-18l-199-199 2-4 434-434 4 2 85 85 1-321 5 1 1 327 81 81zm-178 351-429 429 6 7 189 189 4-2 8-7 12-5 14-3h22l17 4 22 8 35 16 20 9 7 1 38-38-1-4-12-25-5-16-2-12v-18l3-4h6l4 4 1 2 1 17 4 20 5 12 7 11 4-2 55-55-2-4-103-103 2-4 248-248-6-7-172-172zm365 0-178 178 6 7 244 244-2 4-103 103 2 4 42 42 3-4 5-17 1-7 1-18 2-6 9-1 3 3 1 10-2 17-4 15-7 16-1 3 48 48 18-8 31-14 25-9 14-3h20l16 3 14 7 6 5 5 10 2 7 7-6 203-203-6-7-423-423zm-182 182-247 247 2 4 100 100 4-2 141-141 7 6 137 137 4-2 100-100-2-4-245-245zm0 214-3 4h3v277l4-2 79-79v-86h5v80l7-6 46-46-2-4-138-138zm-6 6-134 134 2 4 44 44h1v-74h5v80l82 82h1v-270zm-1041 54v7l4 1v-6l-1-2zm8 0 1 8h6v-8zm11 0 1 8 6 1v-8zm2053 0v8h6v-8zm12 0-2 6v2h4l1-8zm-2108 1 1 8h8l-1-7-1-1zm13 0 1 7h6l-1-7zm42 0v8h5v-8zm10 0v9h6v-8zm2010 0-1 8h6v-8zm15-1-5 1-1 8 7-1v-8zm26 1-1 7h6l1-7zm11 0-2 8h8l2-5v-3zm-2135 1 1 7 4 1-3-8zm84 0v9l5 1v-9zm1979 0-1 1v9l4-1 1-2v-7zm13-1-4 1-1 8h7v-9zm72 1-2 8h3l2-8zm-2159 1 3 9 5-1-2-8zm105 0-1 9 6 1v-9zm1959 0-2 1v9h5l1-1v-9zm103 0-2 4 1 5 4-1 2-5v-3zm-2177 1-1 2 4 9 5-1-1-7-2-3zm125 0v10l6 1 1-2v-8zm2062 0-3 9 1 1h5l4-9zm-121 0-5 1v10l7-1v-10zm-2078 2 6 11h4l-1-5-3-6zm149 0-1 10 5 1 1-10zm1914 0-1 2 2 9 5-1-1-10zm148 0-5 10 4 1 7-11zm-2052 1-1 11 5 1 1-11zm-165 0-6 2 7 11 1 2 6-2-2-6-5-7zm2063 0-4 1v9l2 2 4-1-1-11zm164 1-6 9v3l5 2 8-11-1-3zm-2052 1-1 11 8 1 1-1 1-9-7-2zm-189 1-3 2 10 15 5-2-2-5-7-10zm2065-1-6 2 1 11 9-2-1-11zm188 1-8 13 1 3 4 1 9-14 1-2zm-2051 2-1 11 7 1 1-3v-8zm1848 0-2 1v10l5 1 3-2-2-10zm-2061 1-3 1 2 4 10 15h3l2-4-9-14-2-2zm2276 0-7 8-5 10 5 3 10-15 3-5zm-2051 1-2 12 7 1 1-12zm1827 0-4 1v8l1 4 6-1-1-12zm-2062 2-7 3 6 7 9 9 5 6 3-2-1-4-9-14-4-5zm2297 0-8 10-7 12 2 3 4-2 7-8 9-10v-3zm-2052 1v12l5 1 2-12zm1804 0-2 1 1 11 2 1 4-1v-7l-1-5zm-1939 2-8 1 4 3 29 13 22 10 45 6 26 2h18l18-2 12-4 4-4v-2l-8-2h-7l-1-2h-5l-8-3-19-4-3 1 4 8-1 7-2 2-10 1-19-4-30-10-29-12-9-5zm146 0-1 5v8l5-1 1-11zm1910 0-23 11-27 10-26 8-12 2-9-1-3-4 1-9 2-5-26 5-3 1v2l-5-1-1 2h-8l-8 2 3 5 9 4 11 2 11 1h18l27-2 45-6 32-15 23-10v-1l-9-1zm-2018 1 3 2 27 11 25 8 18 4h5l2-4-6-10-2-2-10-2-4 1 3 5-1 4-11-1-15-5-22-10zm1890 0 1 13 5-2-1-10zm-1948 1m2117 0m-2220 0-8 4 5 5 13 11 10 8h2l1-5-12-13-10-10zm96 1m9 0m173 0-1 12 2-1 1-11zm1766 0 2 12 2-1-2-11zm174 0m9 0m95 0-10 10-7 8-4 6 2 3 4-2 14-12 12-9-4-3zm-2223 1m8 0m2109 0m9 0m-2124 1m8 0m176 0-2 12 6 1 2-6v-6zm1928 0m10 0m15 0-16 10-10 8-7 7-5 8-1 3v11l3 6 7 6 13 5 16 2h11l20-2 23-5 8-2-1-8-4-10-3-1-21 7-22 5-12 2h-7l-6-4-2-3v-10l7-8 9-8 13-8 9-4-2-2-17-5zm-2155 0-18 6 4 3 15 8 11 9 7 8 1 2v8l-4 6-5 2-13-1-24-5-24-8h-3l-6 16 1 3 25 6 13 2 12 1h12l15-2 12-4 8-6 4-8v-9l-5-10-9-10-15-11-11-6zm20 1m8 0 4 3 3-1-4-2zm1926-1-4 1 2 10 1 2 6-1-2-12zm174 1m10 0m-2116 1m2104 0m10 0m-1923 1-3 12 4 2 4-1 2-7v-4zm1910 0-50 23-2 4 6-2 39-19 10-5zm-2220 1-6 4 4 4 32 21 2-4-15-13-14-11zm123 0m9 0 4 3 48 24 2-1-7-6-44-20zm1909-1-5 2 1 9 2 3 6-1 1-2-3-10zm131-7-8 2-25 11-15 4h-6l-1-5 3-5-10 1-5 1-7 11 1 4 1 1 11-1 25-7 30-11 11-5v-1zm179 8-16 13-14 12 1 4 7-4 30-20-5-4zm-2029 3-2 6 1 2 5-2v-5zm1707 0-2 1v5l6 2-2-8zm-1902 3m2098 0m-2097 1 6 7 7 8 4 10v12l-4 8-8 7-8 4-13 3-11 1h-13l-20-2-23-5-8-2-1 1v6l126 42 7-4 10-8 7-8 4-8 1-3v-14l-4-9-6-9-7-8-11-9-15-10-18-10zm2095 0m-2233 1-4 8 11 7 23 12 7 3 1-5-37-25zm2231 0-17 9-17 12-13 12-8 11-4 9-1 5v7l3 9 6 9 8 8 11 8 11-3 117-39-1-7-26 6-13 2-13 1h-13l-16-2-12-4-9-6-5-7-2-11 3-12 8-11 5-6zm-2080 1m2221-1-38 25 1 4 6-1 25-13 10-6-1-6zm-2219 2m188-4-2 16-5 10-7 6-10 5-17 4-9 1-23 1v1l13 1 27-1 21-3 13-5 7-5 4-8 4-9 1-8-6-2-3 9-3 7h-3l4-15-1-4zm-186 5m1875-5-4 2 1 9 2 5-1 4-3-3-4-13-7 2 3 12 4 9 6 7 10 5 11 3 16 2 17 1h11l13-1v-1l-24-1-18-3-12-4-9-6-6-7-3-10-1-12zm186 5m-2059 1m2057 0m-2055 1m2053 0m-2052 1m203 0-3 10v3l5 1 4-9v-3zm1645 0-4 2 1 7 2 5 6-1-3-13zm202 0-40 20-8 8-7 10-4 9-1 4v10l4 9 7 8 8 7 16 9 4 2 6-1v-2l-12-9-9-10-5-12v-13l5-13 10-13 7-7 15-11 6-4zm-2048 1 3 3 14 10 8 7 9 11 6 11 2 9v7l-3 10-7 11-13 11-3 2v2l6 1 15-8 12-9 8-9 4-11-1-11-7-14-11-13-19-10-21-10zm211 4-3 11 4 2h3l3-7-1-5zm1625-1-6 3 3 10 4 1 4-2-4-12zm-2e3 3-1 7 10 6 23 12 4 2h3l1-6-16-8-17-9zm2382 0-21 12-19 9 2 7 19-9 20-11v-8zm-1992 2-4 11 5 2 3-7-1-5zm1601 0-2 1 1 10 1 2 5-1-2-9-1-3zm191 3m-1981 1m198 0-3 11 4 1 3-8v-3zm1583 0-2 1 1 8 1 3 5-1-3-11zm-1619 1-3 3-4 7-6 5-11 5-13 3-18 2h-34l4 3h20l25-1 28-3 15-4 6-4 2-5-4-6-6-5zm1654 1-7 7-1 6 4 4 10 4 15 3 22 2 25 1h20l4-3h-34l-24-3-15-5-8-6-4-5-2-5zm-1610 2-2 11 6 1 2-5v-5zm1566 0-4 2 2 9 4 1 3-1-3-11zm-1974 3v8l7 3 18 8 13 4v-4l-30-15zm2383 0-18 10-18 9 1 4 19-7 14-7 4-1v-8zm-1964 2-3 10 9 3 2-5v-5l-6-3zm1544 0-6 3 2 10 9-3-2-10zm-1531 6-2 9 5 2 3-9zm1519 0-4 2 1 6 1 3 6-2-2-9zm-1951 4m1 1v8l15 7 17 6h3l1-7-18-6zm246 0m195 0-2 8 6 3h2l2-5-1-4-4-2zm1498 0-6 3 3 8 7-2 1-2-3-7zm442 0-14 7-17 6-3 1 1 7 9-2 22-9 4-4v-6zm-2134 1 1 3 17 8 8 6 4 8v14l-4 12-6 10-8 7-18 10-1 2h12l11-4 9-7 7-9 5-10 2-8v-13l-4-11-7-7-23-11zm1888-1-11 4-19 10-6 8-2 6v17l4 11 6 10 8 8 12 6 3 1h13l-3-3-17-9-9-9-6-12-2-7v-16l5-8 9-6 16-8zm-1870 2m698 3v10l1 9h1v-17zm442 0-1 2v18h1l1-7v-13zm-951 1-3 6v2l7 2 3-7-5-3zm1473 0-5 3 2 7 5-1 2-1-1-6-1-2zm206 1m-1884 1 1 6v17l-4 13-7 11-11 11-9 6v2l15 5 5-2 17-9 10-9 7-14 2-8v-8l-3-8-9-7-12-6zm1882 0-16 9-5 6-2 6v10l4 12 5 8 7 7 23 13 11-3 6-2-5-5-11-9-9-12-5-11-2-16 1-13zm-1081 2-59 59 8 16 6 11 4 4 4 10 1 5 1 22 7 5 30 11 25 11 14 8 11 7v-119l-50-50zm289 0-56 56v103l5-2 23-11 26-10 12-5 6-4v-20l3-13 4-6 4-5 16-30 4-8-45-45zm-874 1-2 5v3l7 3 3-7zm1450 1-5 3 2 6 2 1 6-3-2-7zm-1914 2 2 12 9 3 12 2h10v-5l-25-9-6-3zm2379 0-20 8-12 4 1 5h10l20-4 2-7v-6zm-1903 3-3 7 9 5 3-1 1-6zm1426 1-8 4 2 6 2 1 9-5-2-6zm-1337 4v34l16 10 30 20 16 11 20 14 18 13h3l-102-102zm1255 0-88 88h3l20-14 66-44v-30zm-1771 1v4l55 18 50 16 31 10v-3l-10-4-123-41zm2280 0-132 44-2 3 7-1 123-40 7-2v-4zm-1838 2-3 7 5 3 3-1 2-6zm473 0 1 4zm925 0-6 3 1 5 3 2 5-3-2-7zm-487 2 1 3zm-1354 3v5l7 2 31 7 4-1-40-13zm454 1-3 7 6 4 3-1 2-3-1-4zm463 0 1 2zm912 0-7 4 3 6 3 1 6-4-4-7zm453-1-40 13 4 1 37-8 1-1v-5zm-2326 2 1 8 28 4v-8l-22-3zm1397 0 1 2zm973 0-16 3-10 1v8l27-4 2-5v-3zm-1408 4m434 1m-885 1-5 8 10 1h10l-5-4zm-467 1v6l27 3 22 5 15 5 16 8 10 8 7 9 4 9 1 9-3 10-8 9-14 8-13 5-25 6-16 3 4 11 1 1 98 11h6l5-8 5-15 1-5v-24l-4-11-6-9-9-9-15-10-17-9-25-10-23-7-30-7-10-2zm1817-1-14 8v1h10l10-1-5-8zm463 1-36 8-27 8-25 10-17 9-14 10-8 7-7 10-4 11-1 6v11l2 14 5 15 4 7 16-1 89-10 4-9v-3l-9-2-24-5-18-6-12-6-8-6-5-7-2-6v-9l4-11 6-8 10-9 15-8 21-7 25-5 20-2v-6zm-2238 5m2197 0m-2280 1 1 7 16 4 10 1-1-8-1-1-21-3zm87 0m2190 0m-2186 1m2183 0m89-1-21 3-2 1v8l10-1 14-3 2-2 1-6zm-2269 2m2177 0m-2174 1m2171 0m-2167 1m2164 0m-2161 1m2158 0m-2220 1 1 14 39 10 16 6 9 5 3 5v7l-3 6-10 5-21 7-18 3-1 4 4 12 4 1 23-4 21-6 16-8 8-7 4-6v-11l-6-12-8-8-13-8-18-7-21-5-20-3zm65 0m2152 0m57 0-26 4-21 6-16 7-10 7-5 5-6 8-3 8 1 10 6 8 10 7 15 6 13 4 21 4 10 1 5-14-1-3-18-3-24-8-8-5-2-4v-9l5-6 14-6 20-6 27-7 1-2 1-12zm-2206 1m271 0-20 1 4 2 72 3 46 3 38 4 20 4 30 10 4 2 3-1-17-11-21-13-45-3-24-1zm1514 0-56 3-12 1-23 14-15 10 2 1 24-9 24-6 32-4 59-4 72-3 4-2-20-1zm361 0m-2144 1m2141 0m-2138 1m2134 0m-2131 1m2128 0m-2126 1m2123 0-46 15-12 4-8 14-8 18-4 15v16l4 11 4 6 5 6 10 5 2-1-5-10-4-14-1-6v-20l4-13 6-10 10-10 10-7 16-9 20-9zm-2120 1 2 2 23 11 13 8 10 8 8 9 5 10 2 6 1 7v11l-3 19-6 15v3l10-5 8-9 4-8 2-9v-10l-4-17-7-16-9-17-52-17zm-120 1 1 6 12 3 12 1-1-6-20-4zm329 0 6 8 7 14 3 12 2 19 3 72 3 33 5 32 7 30 9 26 9 20 10 17 9 12 11 13 11 11 14 11 15 10 27 14 26 10 24 7 27 6 33 5 32 3 16 1h88l20-1v-1l-74-2-37-2-41-4-36-6-32-8-23-8-18-8-19-10-16-11-11-9-12-11-10-11-9-13-7-12-10-24-8-25-9-38-7-40-5-40-4-44-2-35-1-2 27-2 15-1 30-1h21l30 1 36 3 33 5 26 6 16 5 3-1-21-10-24-9-24-6-23-3-53-4-64-3-29-1zm2027 0-20 4v6l17-2 7-3 1-5zm-349 0-75 3-48 3-40 4-20 4-27 9-20 9-6 3 3 1 30-8 27-5 37-4 15-1 29-1h22l45 2 26 2-1 14-3 43-5 47-7 45-8 37-8 28-8 22-8 17-9 14-9 11-18 18-13 10-17 11-19 10-25 10-27 8-28 6-34 5-32 3-37 2-75 2v1l20 1h88l40-3 36-5 33-7 27-8 27-11 21-11 15-10 14-11 13-12 7-8 12-16 12-21 10-23 8-25 6-27 5-33 3-36 3-71 2-16 5-16 6-10 5-6zm-911 8v117l13 12 7 6 6 7 4-2 7-7 5-10 8-3 33-33v-5l-82-82zm281 0m-407 1m415 0-10 19-6 10 2 8v14l-3 13 10-2 52-16v-3l-43-43zm-1068 2v18l2 76 3 49 4 37 5 30 6 27 11 33 11 23 10 15 12 14 8 7 13 11 18 13 25 15 19 10 28 12 33 11 31 8 26 5 30 4 24 2 26 1h16l27-1 73-5 42-2 31-1 60-1-3-2-19-7-114-2h-115l-31-2-35-4-36-6-31-7-24-7-21-7-23-10-21-11-17-12-10-9-15-15-11-14-14-21-12-23-8-19-8-25-6-27-4-29-2-24-1-23-1-53-2-26-3-14-6-12zm654 0m1072 0-5 8-4 15-2 21-2 78-3 36-6 36-7 26-7 20-11 24-10 17-12 17-9 11-11 12-9 9-18 13-17 10-19 9-24 9-26 8-24 6-31 6-35 5-32 3-19 1h-115l-114 2-19 7-3 2 61 1 73 3 73 5 27 1h16l26-1 33-3 37-6 34-8 37-12 26-11 24-12 20-12 17-12 14-11 13-12 8-8 11-16 8-14 10-25 6-19 7-30 5-32 4-38 2-31 2-60 1-48zm-2040 1 2 8 21 3 1-3-1-6zm2350 0-18 2-1 9 21-3 2-5v-3zm-1087 2-78 78 6 7 41 41 4-2 12-11 16-12v-101zm107 1m-1 2m-1 2m-395 1m-768 1 1 4 14 7 10 8 8 9 5 10 2 8v19l-4 16-4 11v2l7-1 5-4 5-8 3-11v-13l-4-16-8-17-8-10-6-6-24-8zm769 1m1174-1-26 9-11 13-8 15-4 13-1 5v17l4 12 7 8 3 2h6l-3-9-5-17-1-17 3-14 6-11 5-6 12-9 14-8 1-3zm-1576 2m393 0-35 35v2l43 13h3l-3-16v-10l2-9-8-14zm816 0m-1207 1m401 0m549 0-18 4-24 9-1 7 1 2 10-2 14-3 9-1h28l19 3 10 3h3l-1-5-7-8-10-5-12-3-8-1zm256 0m-1776 1 3 8 3 1h16l-1-6-1-1zm803 0-17 3-14 7-5 6 2 4 2 1 17-4 8-1h30l20 3 10 3h3v-8l-10-5-18-6-14-3zm-342 1v1h5v-1zm1419 0v1h6v-1zm464-1-17 2-2 2v5h15l4-1 2-5v-3zm-2034-26 5 5 6 8 4 11 3 16 1 11 2 78 3 39 6 36 7 26 8 22 11 23 11 18 12 16 11 13 15 15 15 11 21 12 25 11 33 11 32 8 38 7 40 5 26 2 167 1 52 1-3-2-26-12-18-10-15-10-12-9-11-9-13-12-11-11-9-11-10-12-16-24-12-21-11-23-9-24-6-19-6-24-5-13-8-16-10-14-11-12-13-13-17-13-21-13-21-11-24-10-22-8-28-8-30-7-35-6-24-2h-12l-29 2-5 1v1l63 14 54 13 49 13 36 11 24 9 16 8 13 10 9 8 9 11 9 13 9 16 11 23 15 39 16 45 9 19 10 17 13 19 14 18 13 15 12 13 17 17h3v5h-12l-48 3-29 1h-45l-41-2-38-4-29-5-30-7-30-10-18-8-21-11-15-10-11-9-10-9-9-9-11-14-9-14-12-23-9-24-7-25-6-31-4-34-2-29-2-54-2-22-4-15-7-13-8-7zm159 28v1l36 6 36 8 31 9 32 11 29 12 15 7 2-1-15-11-16-8-15-7-27-10-30-8-27-5-38-4zm1395 0-37 4-27 5-27 7-28 10-24 11-14 8-10 8 2 1 19-9 30-12 36-12 38-10 36-7 20-3v-1zm170-28-8 6-6 7-5 11-3 11-2 18-3 71-3 34-4 28-6 28-8 26-8 19-8 16-10 16-11 14-12 13-10 9-15 11-20 12-21 10-24 9-29 8-31 6-29 4-37 3-25 1h-46l-47-2-29-2h-12v-5l5-2 18-18 7-8 10-11 11-14 12-16 11-17 10-18 9-20 15-43 13-33 11-24 10-18 12-16 9-10 10-9 14-9 15-7 35-12 39-11 63-16 75-17 10-2v-1l-18-2-16-1h-13l-23 2-30 5-32 7-31 9-28 10-24 11-19 10-17 11-12 9-14 12-8 8-11 14-9 14-8 17-4 13-6 24-10 29-11 24-11 21-12 19-14 19-12 14-15 16-8 7-13 11-18 13-20 12-16 8-20 9v1l52-1 166-1 36-3 37-5 36-7 31-8 32-11 20-9 19-10 17-12 13-12 12-13 13-17 13-21 12-25 8-22 7-27 5-29 3-32 1-22 1-54 2-28 4-18 5-10 9-9zm-1829 31 7 21 2 10v22l-3 12-6 12-2 2v3l17 2h9l4-8 4-12 2-11v-13l-3-12-6-10-4-5-12-9-7-4zm146 0 5 5-2-4zm1643 0m-1 1-3 3h3zm147-1-12 7-10 9-6 9-4 12v19l4 16 5 12h10l17-2-2-5-7-14-3-15v-11l3-17 5-15 1-5zm-378 6m-1177 1m1175 0m225 0m-1981 1 3 9h18l-1-7-1-1zm358 0m226 0m1396 0m-1621 1m1620 0m356-1-16 1-2 8h19l2-9zm-1975 2m1107 0-7 4v7l5-1 4-2v-8zm510 0-1 2 3-1zm-1616 1 5 5v-3zm499 0-1 8 9 3 1-7-8-4zm114 1-3 6v17l2 10h2l-1 4 2 4 5-5 8-1-2-17-4-12-5-6zm374 0-5 5-4 10-2 10v10l7 1 4 5h2l4-16v-20l-2-5zm626 0-2 4 4-4zm-460 4-19 2-15 4-40 14 6 7 53 53 4-2 67-67-3-3-16-5-11-2-12-1zm53 0m-768 1-18 2-8 2 2 4 71 71 4-2 51-51v-2l-27-9-25-9-15-4-18-2zm74 0v7l4 2h4l1-5-7-4zm581-1-7 4 1 6 8-3-1-7zm-924 2m3 1m16 0m1240 0m15 0m-1268 1m16 0m1233 0m16 0m-1262 1m16 0m1227 0m16 0m-1793 1 2 5 2 1h15l-1-6zm536 0m17 0m1221 0m15 0-28 10-23 10-16 8-16 9-12 9-9 9-9 15-8 20-1 6 4-5 7-11 8-10 9-10 8-8 14-11 14-10 23-13 23-11 15-6zm522 0-2 6h16l3-3v-3zm-1772 1 2 2 19 8 17 8 22 13 14 10 11 9 13 12 11 13 10 15 3 4-1-7-8-19-7-12-10-11-14-10-18-10-23-11-26-10-12-4zm17 0m325 0-1 6 8 2 1-4-5-3zm555-1-6 3v5l6-1 2-1-1-6zm269 1m65 0m-1211 1 2 2 25 10 23 11 20 12 11 9 8 9 9 16 7 18 2-3 4-13 5-8 1-3 4-2-1-3-15-11-33-17-25-11-29-11-15-5zm1145 0m63 0m-3 1-29 10-26 11-25 12-21 11-13 10v4l7 8 4 10 2 10 2-1 8-20 8-13 9-10 10-8 13-8 23-12 26-11 5-2zm-870 4-1 4 7 2v-4zm525 1-1 4 6-1-2-3zm-1415 3 2 7 4 1 13-2-2-6zm1406 0-2 1 1 3 5-2-1-2zm914-1-16 1-2 6 16 2 3-9zm-1414 3-1 2h2zm491 1v2h2v-2zm-759 1m273 0v2h3v-2zm-272 1m280 1v2l7 1-2-2zm471-1-6 2 4 1 4-2zm35 0-17 5-25 6-28 8-2 2 87 87 4-2 3-3-1-9 5 5 36-36-2-4-59-59zm-988 3m940 1m497 0m-976 1-56 56 2 4 43 43 4-2 73-73 1-10-37-11-25-6zm33 0m443 0m491 0m435 0-4 13 9 2h7l4-10v-3zm-2288 1-7 1 1 6 3 7 13-1 2-1-2-9-1-3zm922 0m436 0m486 0m-918 1m426 1m475 0m-893 1m414 0m-412 1m409 0m-406 1m400 1m-714 1m321 0m389 0m335 0m-1043 1m322 0m383 0m337 0m-1171 6-17 2-19 5-16 7-14 8-10 8-10 9-11 13-9 14-7 15-5 15-3 16v32l4 19 3 9 1 7 7 11 10 15 12 14 10 9 15 10 16 8 18 6 16 3h31l19-4 17-6 15-8 14-10 13-12 12-15 9-16 6-14 2-3-1 7h2l2-12 2-29v-10l-2-18-5-20-1-5-8-14-9-14-11-13-7-7-13-10-14-8-16-7-12-5-13-1-11-1zm1289 0-21 2-5 1-20 8-16 8-12 9-10 9-9 9-11 16-12 21-1 8-4 18-1 8v22l2 27 1 8h2l-1-9h2l2 9 8 17 8 12 9 11 11 11 15 11 19 10 18 6 16 3h31l20-4 16-6 19-10 14-11 14-14 11-16 9-14 2-5 1-7 4-15 2-13v-24l-3-18-5-16-9-19-9-13-9-10-11-11-14-10-15-8-17-6-12-3-18-2zm-824 1-2 7 1 6 9 10 9 14h1v-7l-4-17-5-10-4-3zm352 0v2l-4 1-4 8-4 15-1 12 3-4 7-11 8-8 2-4v-8l-2-3zm19 1-3 3v17l-2 15-11 44 1 2 15-15 4 2 54 54 4-2 24-24-4-4-5-3h-2v-2l13 1-6-7-81-81zm948 1-3 8 1 1 15 1 3-8-11-2zm-2272 0-11 2 3 8 14-1 1-4-2-5zm974 2m2 1m310 0m-308 1m306 0m-303 1m161 0v30l11-1 6 4 7 7 8 14 3 10 5-5 8-10-2-4-45-45zm140 0m-298 1m6 2m283 0m-281 1m278 0m-1244 1 1 2 101 12h8l-1-2-12-2-90-10zm968 0m275 0m-133 1-28 28 4 4 9 6h7l9-9v-29zm1108-1-99 11-4 2v1l16-1 93-11 1-2zm-981 2-2 2 4-1zm-261 1 3 3 5 2 1-2zm283-1-21 9-20 11-12 8-2 2v44l7-6 47-47 2-16v-5zm982 1-3 6v2l16 2 2-5v-3l-11-2zm-2261 0-12 2 3 8 16-2-2-6-1-2zm347 1m630 0m275 0-2 1v2l5-2zm-1230 1 2 4 33 2h11v-1l-43-5zm956 0 6 7 58 58h1v-28l-11-9-19-12-18-10-14-6zm1262 0-43 5v1h13l31-2 1-4zm-1268 2 1 17v26l-1 22 40 40 7-6 24-24v-5l-70-70zm-37 1-67 67-4 5 31 31 4-2 48-48-4-18-5-20-2-15zm309 0-2 1v2l4-1v-2zm-235 1v2l4 1v-2zm883 0m-1820 2 4 1zm2116 0v1h5v-1zm-2163 1 4 1zm58 0m2097 0m55 0 4 1zm-2189 1v1h6v-1zm44 0 4 1zm561 0-7 7-5 10-2 10v19l4 22 6 23 9 25 9 20 13 25 6 9 1-2-9-16-9-19-8-22-6-25-4-25-1-11v-26l3-17 2-7zm366 0 2 4 3 1v-3zm219-1-4 2v3l5-2v-3zm376 1 4 18 1 12v13l-2 23-5 28-7 25-8 20-8 16-6 11 1 2 10-17 12-24 11-28 7-24 5-24 1-10v-10l-2-12-4-10-7-8zm559 0m41 0v1h6v-1zm-2150 1v1h5v-1zm34 0v1l19 5 15 6 11 7 10 9 8 9 8 15 2 7v18l-7 21h10l6-7 4-12 1-14-3-12-5-10-8-10-13-13-14-11-5-5-33-4zm276 0v5h1v-5zm1791 0v1h5v-1zm34 0v1h6v-1zm-2126 1v1l22 4 18 6 11 6 8 7 6 12v9l-4 10-9 10-13 9-16 8-14 6v4l7 11h10l52-4 9-1 7-16 2-8v-14l-4-11-6-11-11-12-8-7-14-8-13-5-17-4-15-2zm2083 0-24 3-9 8-11 9-12 11-9 12-6 13-1 5v13l3 12 3 6 4 5h11l-6-16-2-11 1-13 5-13 8-12 12-12 14-9 14-6 14-4v-1zm31 0-24 4-18 6-15 8-13 11-8 10-8 16-2 10 1 11 5 14 4 8 48 4 13 1h10l8-13-1-2-21-9-11-6-11-8-8-8-5-10v-12l5-10 7-7 15-8 20-6 18-3v-1zm70 0-3 8 1 1 16 1 3-8zm-2247 0-15 2 3 8 15-1 1-3-3-6zm161 1 3 4 18 5 16 8 11 10 6 10 3 8 1 4v19l-4 16-3 8 5-1 8-7 4-9 1-5v-13l-4-15-7-14-8-10-7-7-11-7-12-2zm1925 0-27 3-10 5-11 9-9 12-6 12-4 14v17l4 11 5 6 5 3h3l-3-10-3-12-1-15 2-12 7-14 7-8 11-7 14-6 14-4 4-4zm-2065 3 2 6 3 6 37 1 17 3 14 5 7 6 2 4v12l-3 6-8 8-17 10-12 6 3 6 6-1 21-9 16-10 10-10 4-9-1-9-4-7-9-8-13-6-17-5-18-3-27-2zm631 0-3 9-1 6v33l4 28 6 25 8 23 10 21 10 17 12 17 9 11 9 10 7 8 10 10 8 7 17 14 18 13 19 12 21 12 21 10 22 8 22 5 9 1h18l15-3 12-5-4-2-26-4-27-6-36-12-25-11-24-13-21-14-12-9-11-9-10-9-12-11-7-8-9-10-14-19-9-16-7-16-4-15-1-13 2-13 5-10 3-3v-2l16-8 6-1h9l8 1-5-5-17-14-14-11-16-13-14-11zm367 0v3l9 5-1-4-6-4zm199-1-2 1 1 4 3-2-1-3zm997 1-27 2-22 4-16 5-12 6-6 5-6 10v9l4 8 6 7 13 9 17 9 13 5 4-1 2-5-24-13-10-8-5-8-1-3v-7l3-7 5-5 12-5 20-4 38-1 5-11v-1zm-619 2-8 8-13 8-7 4-13 11-14 11-17 14 2 1 6-1h9l13 4 8 6 6 8 3 8 1 4v18l-4 16-7 17-10 17-13 17-12 14-20 20-11 9-15 12-23 15-18 10-25 12-24 9-24 7-22 5-27 4-3 2 12 5 15 3h18l19-3 21-6 26-11 24-13 22-14 18-13 11-9 14-12 23-23 9-11 12-16 11-18 11-21 8-21 6-20 5-27 2-18v-25l-3-17zm-386 2 1 2zm-1040 1m1714 0m-1713 1 6 8 8 10 8 15 4 16v18l-3 13v3l2 1h9l4-1 6-16 2-11v-13l-3-12-6-10-6-7-10-7-14-6zm1904 0-16 6-10 7-6 5-7 10-4 12v19l4 15 4 9 3 1h10l2-3-3-12v-23l5-16 6-11 10-13 5-6zm-1118 1 1 2zm75 2 1 4h2l-1-4zm173-1-8 6v2l4-1 6-4-1-3zm1036 1-4 9 12 2h6l3-9-12-2zm-2238 0-10 1-2 1 1 5 2 4 14-1 3-1-2-6-2-3zm360 3m905 0-48 48 6 7 20 20 2-2 4-11 7-8 8-6 5-3-3-45zm-467 2-46 46 6 7 35 35 5 4 4-2 18-18 1-22 3-10 5-8-2-4-28-28zm653 0-37 37 3 10 2 13 28 28 5-2 11-10 11-9 13-11 11-9-2-4-43-43zm-414 1 1 2zm153 3-5 6 4-2 3-3zm17-1-12 9-6 5 2 4 16 16h1v-34zm-165 2v3l3 3 3-1zm863 1v7h1v-7zm327 2-3 5v2l12 3h5l3-7-2-1zm-2222 0-14 2-2 1 2 6 1 1 9-1 8-2-3-7zm608 5 1 2zm419 0v30l7-6 9-9-6-7-9-8zm14 1 2 4 2 1-2-4zm572 1m-1e3 1m452 0-4 5 4 3 1-8zm107 0m-1 1m-1163 2-15 4 3 7 13-1 6-2-4-8zm2212 0-4 6v2l12 3h6l3-5v-2l-15-4zm-1042 3-13 13 3 3 13 9 11 11 7-6 3-3v-5l-22-22zm-847 3 1 3zm970 3-15 15 7 11 4 16v19l-5 23-3 9 1 5 11 11 7-6 48-48-2-4-51-51zm-251 3-5 6 7-2v-3zm1163 0-5 8 3 3 12 4 4-1 5-11-15-2zm-2196 0-8 2-10 1 2 5 4 7 12-3 6-3-5-9zm808 2-1 4v12l12-4-2-4-8-8zm105 1-47 47 2 4 44 44 1-2-7-24-3-16v-16l4-16 5-8v-2l4-2-1-9zm114 3m854 3 1 2zm-828 2m-3 1-16 8-11 9-6 8-5 10-2 10 1 11 4 9 4 3 4 1 9-3 5-5 3-4 3-11 1-21 4-13 5-10v-2zm78 0 2 6 6 15 1 4 1 22 3 10 6 8 6 3 6 1 6-3 5-10v-16l-4-11-6-9-9-9-13-8-7-3zm256 1v4l1-4zm804 0-4 5v2l13 5 6 1 3-5v-2l-15-5zm-2180 0-13 5-4 1 1 4 2 3 11-3 7-3-1-4zm307 2m363 2-9 4-8 7-5 8-2 7v18l4 15 7 17 9 15 12 16 11 13 7 7 5 6 8 7 11 10 17 13 13 9 18 11 23 12 26 11 25 8 8 1-3-2-28-11-20-9-20-10-20-12-17-12-10-8-10-9-9-8-7-8-13-17-11-19-7-18-3-12-1-7v-19l4-11 8-7 10-4 13-2-4-4-12-5-4-1zm824 0-13 5-7 4v1l13 2 11 4 7 6 4 9 1 6v13l-3 17-5 15-8 16-7 12-10 13-11 12-12 12-14 11-17 12-20 12-25 13-31 13-20 7 4 1 27-8 25-10 21-10 19-11 15-10 16-12 11-9 13-12 15-15 9-11 10-13 8-13 8-16 6-18 1-7v-13l-3-10-6-9-8-6-8-3zm-312 2v65l7-6 22-22 1-8-29-29zm-365 1-13 13 1 8 8 16 12 18 4-2 21-21-6-7-25-25zm93 3-6 3-2 3 1 9 7 2 14 1 13 4 8 6 3 2-1-8-4-10-8-9-7-3zm330 0-7 3-6 5-6 12-2 10 8-6 8-4 8-2 20-2 2-3v-7l-5-5-4-1v2l-3-2zm-1233 0-12 5-6 2 2 6 11-1 10-4-2-5zm1358 1-26 26 2 4 14 14 5-5 9-16 4-11-1-7-5-5zm807 0-4 7 11 4 10 1 3-4v-2l-17-6zm-996 1-6 7 5 10 2 3v-20zm989 10-5 9 12 5 8 2 6-9-2-2-15-4zm-2151 0-12 4-7 2 2 5 3 5 12-3 9-4-5-9zm975 1m-287 1-11 3-6 4-3 3-2 9 1 17 4 15 6 15 9 16 9 12 12 14 8 8 11 9 14 11 17 11 16 9 17 9 28 12 30 11 23 7 21 4h3l1-7-20-3-23-6-26-9-29-13-25-13-20-12-22-15-14-11-13-13-9-14-6-13-4-15-1-7v-11l3-14 5-8 7-4 4-1 14-1-5-5-5-4zm286 0-14 14 6 7 5 4 3-18 1-7zm400 0-5 15-7 13-10 13 6 7 5 5 4-1 11-10 11-9 9-8-2-4-21-21zm72 0-10 8v1l14 1 9 4 5 6 3 7 1 5v21l-4 16-5 12-7 11-8 10-9 9-16 12-15 10-18 11-18 10-16 8-19 9-27 10-25 7-24 4-2 1 2 6 9-1 19-4 36-12 21-8 20-9 22-11 23-14 16-12 13-11 18-18 12-16 9-16 6-14 4-14 1-6v-19l-3-6-5-4-8-3-5-1zm-507 1m1 1 2 18 2 4 9-9-6-7zm910 1m-1554 4m480 3-17 17 2 4 11 9 10 9 10 8 4-2 6-7-12-15-9-14-4-9zm-768 1-15 6-4 2 6 9 5-1 15-6-1-4-4-6zm1974 0-11 6-12 11-8 11-6 12-4 14-1 5v20l3 11 3 2h4v-29l3-15 5-12 6-9 7-8 11-7 11-5 4-4v-2zm161 0-6 9 10 5 8 3h3l5-8v-2zm-1974 0-13 1v3l7 5 10 4 9 7 7 7 8 14 4 13 2 14v24l6-1 3-8 1-7v-14l-3-15-6-15-7-11-9-10-13-9zm132 1v10h1v-10zm404 1-10 4-5 8-2 7v21l4 15 5 12 8 12 9 10 8 8 12 9 2-1-14-13-11-14-8-15-4-16v-11l3-11 7-9 8-6 7-3 5-1-3-4-9-2zm730 0-9 3-3 3 13 4 9 7 6 9 2 6v19l-4 13-8 15-9 11-14 14h3l14-11 9-9 10-14 6-13 4-13 1-6v-17l-3-11-6-7-8-3zm599 2-2 3 1 1 41 4 35 4h6l3-5-18-2zm-1917 0-78 6-4 1 2 5 16-1 66-7 2-2zm722 3-24 24 4 6 8 13 7 16 7 21 18 14 13 10 21 16 19 14 3-4 8-18-15-30-11-25-57-57zm117 0-13 13v22l-2 38v9l5-5 11-12 12-11 12-8-7-21-2-10-15-15zm364 0-57 57-7-6-7-7h-2l-11 27-14 30 1 5 8 16 6 13 5-2 21-16 16-12 17-13 10-8 3-9 7-20 8-17 8-11 7-9-6-7-11-11zm-1205 4-31 3 4 2 20 3 15 5 11 6 10 9 7 11 4 9 2 9v17l-3 13 7-6 5-10 1-5v-11l-3-12-8-16-7-9-11-11-10-7zm1910 0-11 8-10 9-8 11-8 16-2 8v16l4 11 7 7 1-3-2-7-1-12 2-14 5-12 7-10 7-7 13-8 15-5 25-4v-1l-32-3zm-1859 2m-150 1-17 7 2 5 2 3 6-1 14-8-4-6zm151 0 12 18 7 16 3 12v22l-2 10 2 1h10l1-3 1-17-2-18-5-15-7-11-6-7-10-7zm1966 0-3 6 10 6 6 3h4l4-6v-2l-17-7zm-1403 1-11 4-7 6-5 9-1 4v11l3 11 8 16 9 11 14 14 13 10 15 10 18 10 29 14 15 6 3-1-30-14-24-13-21-14-10-8-10-9-8-9-7-11-4-13v-13l3-12 6-10 9-6 2-2-2-1zm685 0-1 2 8 5 6 7 4 9 2 11v8l-3 12-7 12-11 13-10 9-18 13-24 14-30 15-14 6 3 1 24-10 27-13 20-12 14-10 14-12 9-9 8-11 8-16 3-14-2-13-6-8-7-6-9-3zm569-1-10 6-8 8-8 14-5 16-1 8v18l1 8 1 1h9l2-1-1-8-1-7v-11l3-16 6-15 8-13 5-6zm-1684 2 2 10h1l-1-10zm895 0-33 33 14 9 10 8 10 9h1l-1-59zm656 0-1 2v6l2-3v-5zm-1781 2-19 2-9 2 3 6 26-3h20l16 3 9 4 8 7 3 8v7l-4 9-8 9-14 9-12 6 2 5 11 13 13-1 35-5 4-11 1-6v-11l-3-13-7-13-9-10-10-7-12-5-12-3-20-2zm2e3 0-19 2-15 4-14 7-10 9-7 9-5 11-2 8v17l4 13 5 2 39 5h5l9-11 4-6-18-10-10-8-7-8-3-7v-10l6-10 10-6 12-3 8-1h20l25 3 4-6-16-3-12-1zm57 6-3 5 17 11 5-5v-2l-16-8zm-2102 0-18 9 2 5 1 2 5-2 13-9-2-5zm1824 1 1 3zm-449 1-13 11-14 11-15 13-11 9-56 48-12 11-8 7-24 22-1 4 1 2 7-1 38-14 26-11 28-13 20-11 17-11 12-9 12-11 8-9 6-12 1-3v-14l-4-10-4-5-7-3h-5zm-1097 1 1 2zm449-1-1 1-9 1-7 6-4 10-1 5v7l3 10 7 11 7 8 8 7 13 10 19 12 22 12 23 11 29 12 35 13 8 2 2-6-26-24-10-9-11-9-13-12-11-9-10-9-11-9-15-13-11-9-13-11-10-8-12-10zm410 3-5 14-1 3 6 2-1-4 6-7h-4v-8zm-1089 1-24 3 6 9 20-2 13-1 8 2 3 3 1 2v6l-4 6-20 11v3l8 11 12-5 11-7 10-9 4-6 1-8-4-8-9-6-11-3-9-1zm1775 0m215 0-16 3-10 5-5 6-1 3v7l4 7 4 5 14 10 12 6 5-1 7-9v-3l-16-8-7-6-1-2v-8l4-4 8-2 29 3 5-1 4-6v-2l-12-2-12-1zm-1759 1m-274 2-15 10-1 2 5 5 10-6 6-5-2-5zm2091 0-4 6 14 10 4 1 4-6-16-11zm-773 2-12 17-8 14-3 9 4-2 13-11 11-9 7-6-2-4-8-8zm-292 5-20 2-19 4-16 6-17 9-12 9-10 9-11 12-11 16-12 21-10 23-8 23-2 9-3 8 1 8h-3l-6 28-4 32v36l3 19 4 12 6 11 7 7 11 6 8 2 13 1 8-1 6-7 5-10 4-15 2-12 2-29 1-88 3-15 5-13 6-11 8-10 7-7 13-9 17-8 13-4 11-2h31l18 4 13 5 13 7 10 8 3 3h2l2 4 7 8 9 15 6 17 2 11v55l1 23 3 25 5 24 7 21 4 9 2 1 17 1 15-3 10-6 5-4 6-9 5-11 4-19 1-11v-24l-3-30-6-31-8-30-10-28-12-26-12-20-11-14-10-11-11-9-10-7-15-8-21-7-14-3-20-2zm-252 2-7 7v2l11 9 12 10 1-2-7-14-9-12zm-767 1-11 8-5 4 3 4 5-1 12-8v-4l-2-3zm2077 0-4 6 14 9 4 2 3-4-1-3-12-8zm-1223 7m-847 3-14 9-2 2 5 5 15-10 1-2-3-4zm2063 0-3 3v3l16 10 4-4-1-3-13-8zm-1552 1m1042 3m-1546 5-15 10 1 4 3 2 12-8 4-4-3-4zm503 0m1546 0-3 5 12 9 5 2 3-4v-2l-16-10zm-576 7v3zm-703 1m-764 1-12 9-2 1 2 5 4 3 11-10 3-2-3-6zm572 0 1 3v-3zm1464 0-3 4 2 4 12 10 5-5v-3l-14-10zm-571 1v3zm-891 2 1 3v-3zm889 1v3zm79 0m-966 2 1 3v-3zm885 1v3zm-1452 2-13 11-2 2 5 6 4-1 9-7 3-4-5-7zm569 0 1 3v-3zm1451 0-5 6 1 4 12 9h3l4-5-2-4-12-10zm-570 1v3zm-964 2m85 0 1 3v-3zm877 1v3zm-875 2 2 4v-3zm873 1m-1 1v3zm89 0 1 2zm-958 2 2 4v-3zm867 1m-1435 1-8 7-6 4 3 4 5-2 11-7-1-4zm1434 0v3zm568 0-3 5 10 7 5 3 3-1 1-3-10-8-4-3zm-1431 2m1 1 1 3v-3zm860 0m-1 1-2 4 3-2zm-1306 1 4 4 7 5 13 5 11 7 9 8 9 12 8 16 5 16 5 1v-13l-3-12-7-13-11-12-8-7-13-8-17-8-3-1zm1745 0-18 8-14 9-11 9-9 11-7 14-2 8v15h4l6-18 9-17 8-10 7-7 11-7 16-7 10-7v-1zm54 0m-1350 1m1 1 2 4 2 1-2-4zm853 1m-1421 1-10 7-4 4 7 6 14-10-2-4-2-3zm1420 0-4 4 1 2 4-4zm568 0-4 5 1 3 12 9 4-2 3-4v-2l-14-9zm-71 2-9 4v2l48 10 4-2 5-6v-2zm-1846 0-45 6 2 4 5 6 26-5 23-5v-2l-9-4zm501 1m1 1 2 4 4 3-2-4zm763 2m79 0m104 0m-864 1m679 0m80 0-7 7 1 2 7-7zm-758 1m677 0m-675 1m674 0m568 0-16 8-11 8-10 9-10 13-6 12-2 8v9l3 4 6 1-2-6v-12l4-11 7-11 9-10 10-7 13-6 13-3 12-1-4-2zm-1811 0-19 4v1l19 2 14 5 12 7 12 12 7 11 4 9 1 5v8l-1 7h5l3-6-1-10-4-11-6-10-11-13-14-11-14-8zm382 1m188 0m672 0m648 0-3 4v2l13 8 4-1v-4l-12-9zm-1969 0-14 10 2 4 5-1 12-7-2-4zm569 1m81 0m669 0m523 0m-1713 1m441 0m82 0m666 0m522 0-11 7-12 12-7 11-6 12-5 15v2l3 1 10-4 3-14 5-13 7-11 9-11 6-7zm-1710 1 6 7 10 13 8 16 3 9 2 10 10 4 2-1-1-8-6-15-7-12-8-10-10-9-7-4zm441 0m82 0m-81 1 2 4 12 12 2-1-15-15zm743 0m81 2m-1 1m-1343 1-16 3v1l13-1h27l13 2-2-2-12-3zm1342 0m501 0-13 4 3 1 10-2h35v-1l-11-2zm-927 1-15 3-17 6-14 9-11 9-8 10-8 15-4 14-1 7v35l5 24 2 2 5-23 6-12 2-3v-12l-1-5h3l1 10 1 8-6 7-4 16-4 20-3 4-5 3-1 3 6 18 6 8 7 6 8 3 16 1 5 2 1 1 1 11 10 7 2 2 7 1 3 3h5l2 1h8l3 2 3-3h13l3-3 9-2 5-5 5-2 1-10 1-4 4-1 20-1 9-5 8-9 5-12 2-7-1-5-7-6-7-33-4-8-4-4 4-19 1 20 5 8 5 16 2 11h2l4-15 2-13v-29l-2-16-5-12-7-11-9-10-8-7-16-10-12-5-12-3-7-1zm425 0m568 0-3 3 2 4 8 8 3 1 6-7-9-6-5-3zm-1953 0-15 9 6 7 5-2 9-9zm1384 1m-1 1m539 0 4 1zm-1898 1m1358 0m545 0m-1906 1m60 0m1300 0m490 0m61 0m-1849 1m1297 0m489 0m-1784 1m1294 0m488 0-1 2 3-1zm-1824 1-17 3 3 5 13-2h13l16 4 5 3 3 5-1 7-5 9-8 8 8 6 10-6 7-6 4-6 1-3v-8l-4-8-8-6-11-4-6-1zm44 0m1291 0m510 0-12 3-8 4-6 7-2 4v10l5 8 9 8 9 4 7-6-5-4-6-8-3-6v-7l3-5 10-4 11-2h13l12 2 4-5-17-3zm-1880 1-9 9-3 2 2 4 4 1 12-9-2-4zm81 0 3 4h2l6 12v12l-4 8-9 9-9 6 5 5 8 6h2v-3l9-1 12-3 3-4 1-3v-11l-4-11-6-10-9-10-8-6zm1288 0m487 0-1 2 3-1zm82 0-5 5 2 4 10 7 4-2 2-3-8-7zm-571 1-7 7h3l6-7zm486 1-10 9-8 10-5 11-1 4v13l3 6 17 4h5l1 3 14-10-3-3-11-8-6-8-3-9 1-9 6-10 2-3zm-1281 1m1 1m1 1 5 6 2-1-5-5zm785 4m-1351 1-8 7-3 2 2 4 4-1 10-7v-3l-2-2zm1350 0m570 0-3 4 7 6 5 3 4-1 1-3-12-9zm-1347 1m775 0-2 3 4-2zm-774 1m1 1 2 3 2-1zm770 1m-1 1m-765 1m763 0-1 2 3-1zm-1333 1-13 10 5 5 4 3 9-6 4-4-8-8zm571 0m1 1m759 0m572 0-7 6 2 4 10 7 4-2 6-5-4-4-8-6zm-1329 1m756 0m-755 1m753 0-1 2 3-1zm-752 1m106 0m540 0m-645 1m107 0m642 0m-747 1m107 0m23 0 2 2 3-1zm508 0m108 0m-745 1m109 0m502 0m24 0m108 0m-741 1m109 0m23 0m474 0m25 0m109 0m-739 1m110 0m24 0m469 0m24 0m111 0m-737 1m111 0m24 0m464 0m25 0m111 0m-733 1m112 0m24 0m459 0m24 0m113 0m-1307 1-8 7-3 3 6 5 5-2 9-6-6-7zm576 0m113 0m25 0m454 0m24 0m688 0-7 6 5 4 8 5 4-2 4-4-12-9zm-1188 1m25 0m448 0m24 0m115 0m-610 1m493 0m-490 1m487 0m281 0m-1042 1m276 0m482 0m-751 1m272 0m477 0m-741 1m267 0m471 0m217 0m50 0m-995 1m46 0m213 0m466 0m261 0m-976 1m42 0m210 0m460 0m253 0m-952 1m242 0m454 0m208 0m35 0m-1398 1-12 8 5 5h3l10-8-1-3zm473 0m25 0v2h7v2l16-1v-1l-18-2zm206 0m448 0m231 0m473 0-4 5 9 7 4 2 6-5-5-4-8-5zm-1366 1m218 0m441 0m207-1-19 2v1l17 1v-2h6v-2zm10 1m-655 1m435 0m-432 1m429 0m-3 1m-1131 4-10 8v2l7 4 8-7 2-4-4-3zm114 0-1 2 13 7 16 2 11 4 10 6 10 9 4 10v9l-1 8 5-4 3-7v-7l-5-10-9-10-11-8-12-6-15-4-6-1zm1601 0-15 3-13 5-11 7-10 9-6 7-3 7v9l3 6 5 4-1-6v-13l5-10 13-10 10-5 13-3 9-1 13-7v-2zm123 0-4 3 2 4 7 7 5-2 2-4-8-7zm-1776 6m-52 1-7 8-2 2 7 5 4-2 7-7-5-5zm1818 0-6 5 6 8 2 2 4-1 5-3-2-4-7-7zm-1148 2m4 1m471 0m-1092 1-23 5-2 2 7 1 30-5-3-2zm625 0m464 0m619 0-5 2v1l30 5h5l1-2-16-4-9-2zm-1639 1 4 4 10 8 9 11 5 10 2 7 1 11 8-1 3-9 1-4v-9l-5-10-9-8-16-8zm1574 0-16 4-10 6-10 9-4 8v12l3 8v3l9 1 1-13 5-12 8-11 8-8 8-6zm111 3-7 5 2 4 6 5 4-1 4-2-2-5zm-1795 1-8 8 4 4 5 1 8-8-5-4zm13 7-8 8 3 3 5-1 6-5-5-5zm1770 0-6 4 5 5 3 2 6-1 1-2-6-5zm-1739 3-9 1v1l31 2 8 2 3 3 1 6-2 5-3 4 7 1 8-5 1-1v-6l-6-7-8-4-10-2zm1688 0-13 3-8 5-4 7 2 5 8 5 7-1-4-5-1-2v-6l3-5 9-2 30-2v-1l-8-1zm-1699 2m1729 0m9 2-7 4 5 6 9-2 2-2-7-6zm-1747 0-8 6 3 2 9 2 4-4-1-3zm684 3-11 4-9 2-13 1-1 1-55 1-6 3-5 6-3 10v9l3 10 4 6 8 7 8 3h10l8-4 5-6 2-10-2-7-5-6-7-3-8 1-5 3-2 4v6l4 5 7 1 2-2v-5h-6l1-3 5-1 4 2 1 7-2 4-4 2-9-1-5-4-2-4v-7l3-6 6-5 10-1 8 3 5 4 4 8v13l-4 8-6 5-8 3h-11l-10-4-9-8-6-12-1-6v-8l2-9 3-7-4 2-7 7-6 10-2 5v14l5 10 9 8 8 1h28l23-3 19-5 18-7 8-36 5-19zm378 0 2 9 7 28 3 17 14 6 20 6 17 3 10 1h28l10-2 8-7 4-8 1-4v-10l-4-10-6-8-7-7-1 2 3 9v16l-4 11-7 8-8 5-7 2h-11l-9-4-7-8-2-7v-7l3-8 5-6 6-3 9-1 8 3 5 6 1 7-3 8-4 3-9 1-5-3-1-1v-8l5-3 5 1 1 4-6-1-1 4 3 3 7-1 4-6-1-7-6-5-8-1-8 4-4 5-2 5v7l4 8 6 5 5 2h10l8-3 9-8 5-11v-16l-4-9-5-5-5-2-54-1-2-1-18-2-15-5zm-1049 4-4 5 4 1 3-3v-2zm1722 0-3 3 3 3 5-1zm-1714 4-2 4 8 2 4-1zm232 0-27 5-41 6v1l10 1 30 1h29l40-3 21-2v-1l-34-4-23-4zm331 1m593 0 3 3 15 7 20 6 17 3 10 1h35l37-4 43-6v-1l-21-2-59-4-42-2-30-1zm314-1-30 5-28 3v1l46 4 18 1h26l31-1 10-1v-1l-47-7-21-4zm235 0-8 5 4 1 8-2zm-1182 1-53 2-65 4-27 2-7 1v1l59 8 23 2h32l24-3 21-6 16-7 5-4zm622 3m1 1m-1136 1m1684 0m-1680 1m1676 0m-1672 1m1669 0m-1144 3m620 0m-854 1-62 5-20 1v1l45 4h13l21-5 24-3 20-1v-1l-15-1zm855 0 1 3 12 9 15 7 15 4 6 1h30l24-4 49-12 11-2v-1l-14 1-37 5-24 2h-29l-19-2-19-4-19-7zm203 0-14 1v1l24 1 24 3 21 5h12l38-3 6-1v-1l-33-2-47-4zm-826 0-17 6-21 5-18 2h-34l-31-3-29-4h-6v1l30 7 29 7 18 3 19 1 19-2 15-4 16-8 9-7 3-4zm-185 2 4 1zm988 0v1h7v-1zm-977 1m968 0v1h5v-1zm-1227 1m266 0m954 0v1h5v-1zm270 0m-1461 1m243 0 4 1zm1188 0m16 0v2l16 1-3-2zm-1466 0-9 1-2 2 15-1 1-2zm210 2-27 4-4 2 50 6 68 9 79 12h8l12-3 8-4 8-7 8-12-1-2-14 8-18 6-12 2h-28l-25-4-50-12-23-4-10-1zm1021 0-22 3-30 7-28 7-24 4h-32l-19-4-16-7-8-5-2 1 8 12 7 7 12 6 10 2 14-1 80-12 69-9 42-5v-1l-22-4-10-1zm-811 4m-334 10 5 19v24l-3 10h15l-4-5v-6l7-11 1-1v-6l-7-6-1-6 4-4h10l6 4h2l2 4 3 8v7l-4 9-8 9-5 4h26l14-2 5-7 2-6v-10l-4-11-7-9-6-6-16-1zm-76 1 4 5 5 5 4 5 4 8 1 3v17l-5 10-7 7-12 6-10 3-28 6-1 2 1 6 9-2 24-6 17-4 11-14 8-13 2-7v-7l-4-9-18-20zm1368-1-31 1-16 1-10 11-5 10-1 3v13l4 9 3 3 14 2h26l-5-4-8-8-4-9v-10l4-8 5-4 4-2h10l3 1v9l-7 6-1 4 8 13 1 5-3 5-1 2h14l-2-9-1-6v-14l3-15 3-9zm79 1-14 14-7 10-2 5v10l8 16 13 16 44 11 6 1v-8l-33-7-14-6-8-6-6-9-2-7v-10l3-10 6-10 10-9zm-1458 1 5 5 7 8 4 10 1 4v12l-4 13-2 6 5-2 7-7 4-10v-12l-4-10-7-9-10-8zm1467 0-8 6-8 9-4 8-2 11 2 10 6 9 8 6 2-1-5-10-2-7v-16l4-11 7-9 6-4v-1zm14 0-8 4-7 6-6 10-2 7v12l3 10 6 11 6 4 22 5 12 2 5-15 6-11 7-9 13-9 13-5 17-3 23-1-3-2-22-6-27-5-35-4zm-1497 0-35 3-33 5-28 7-6 2v1l23 1 20 4 16 8 10 9 7 11 5 11 3 9 12-2 22-5 7-6 6-12 2-10-1-12-6-12-8-8-8-4zm162 1 6 8 5 9 2 6v14l-3 9 9-2 6-3 4-5 1-6-4-10-8-11-11-8zm1176 0-10 6-9 10-5 10-1 9 6 7 10 4 4-1-3-7-1-11 2-9 6-11 6-7zm-1163 1m260 0-8 9-10 6-5 2v1l26 4h7l-7-12-2-10zm634 0-4 13-5 9 13-1 19-3-1-2-12-6-7-7zm259 0m-1151 1 6 7 6 8 4 8 1 3v8l-4 6-12 6-3 2 7-1 16-6 7-5 2-3v-7l-6-10-12-10-10-6zm1149 0-14 9-10 9-4 7v8l4 5 14 7 10 3 4-1-12-5-6-5-1-2v-10l7-14 7-8 3-3zm-1102 4 1 8 5 12 8 10 10 9 14 8 2-1-10-9-7-7-7-11-4-10-1-8-3-1zm1056-1-10 2-4 16-7 11-11 12-6 5 2 1 11-6 11-9 8-10 5-11 2-11zm-1040 3v7l7 14 9 10 9 9 14 10 11 4 18 3 10 1h51l24-9 31-9 32-7 18-3v-1l-40-1-35-3-38-5-46-8-49-9-19-3zm1018 0-42 7-60 11-41 6-44 4-40 1v1l32 6 36 9 32 11 5 2h51l23-3 12-3 11-7 13-11 8-8 8-12 3-9v-5zm-813 15m614 0m-518 3m413 0v24l-3 23-5 16-6 12-9 10-8 6-15 7 1 2 15 2 17-1 13-4 10-6 9-9 6-12 3-13v-10l-3-13-7-13-13-16zm8 0m-424 1-18 5-10 8-10 10 2 2 9-7 21-12 9-5zm426 0 3 3 28 16 9 6-1-4-10-10-8-6-18-5zm-417 2-10 12-9 14-4 11-1 5v15l4 13 6 10 5 6 10 7 11 4 13 2h9l15-2v-2l-17-8-9-7-9-13-6-15-4-20-2-32zm-694 9-11 9-1 2 7-1h14l8 3 4 5 2 6v9l-3 5-4 3-3 1h-20l-10-2h-4l1 10 1 2 20 5 7 1h18l10-3 8-5 4-6 3-10v-12l-4-8-8-7-10-4-11-2zm1793 0-19 2-12 4-9 6-4 6-1 3v15l5 12 7 6 12 4h19l20-4 7-3 2-12-14 3h-20l-8-4-2-4v-12l3-6 5-4 5-2h15l7 1-5-5-7-6zm-1123 5m458 0m-460 1m461 0m-463 1-12 8-7 7-5 10-2 8v11l4 13 6 11 8 13 3 8 2 7 9 4h2l1-2v-9l-6-9-10-10-7-10-5-11-1-4v-14l3-9 7-9 12-12zm464 0 15 15 6 10 2 8v9l-3 11-5 10-18 20-4 8 1 8 3 1 9-4 5-16 11-18 5-11 2-11-1-11-5-12-8-9-13-8zm-812 1m851 1 4 3 11 6 11 8 10 9 4 3 13-1h12l20 2 17 4 16 6 16 9 14 12 10 12 9 15 8 16 8 21 7 26 5 28 2 18 2 39-44 11-28 5-30 3h-30l-25-3-19-5-15-6-13-7-13-10-12-11-9-9-11-15-8-15-5-16-1-5-5 5-4 11-1 6v10l4 13 9 10 12 12 17 13 15 9 16 8 21 8 23 6 19 3 28 2 31-1 33-4 34-7 32-9 1-1v-16l-2-25-5-33-7-29-8-23-9-20-8-14-10-14-12-14-14-12-18-11-20-9-25-9-28-8-32-7-18-3zm-544 0-28 5-30 7-26 8-22 8-23 11-12 8-13 11-8 8-10 13-10 16-8 16-8 20-7 23-6 28-4 30-1 13v22l7 3 34 9 32 6 26 3 31 1 29-2 23-4 25-7 21-9 17-9 17-12 15-13 9-9 6-9 2-7v-17l-4-12-4-6-2 4-5 16-9 17-10 13-11 12-10 9-15 11-15 8-21 7-23 4-12 1h-29l-31-3-28-5-32-8-11-3 1-30 3-29 4-23 7-27 9-24 12-23 9-12 9-10 11-9 14-8 14-6 21-5 20-2h12l14 1 11-11 14-10 13-7zm47 1-15 15-4 5-3 8v14l5 12 8 11 10 10 5 9 1 3v11l8 2h26l18-3 18-5 10-4-1-4-7-4-14 3h-26l-12-3-12-6-9-8-7-11-4-12-1-6v-14l3-12 5-11zm317-2-5 24-6 20-8 16-7 9-10 10-13 9-18 10-20 8-9 1-16-6-16-8-12-7-12-9-11-11-8-13-6-15-6-22-3-14h-1l1 14 5 25 10 30 11 21 11 14 7 7 10 7 12 6 16 4h24l15-4 12-6 10-8 8-8 10-14 12-25 8-26 5-25 1-14zm136 2m1 1 6 18 1 14-3 16-6 12-9 10-9 6-13 5-5 1h-26l-16-3-7 5 1 3 16 6 22 5 8 1h25l9-2v-12l5-10 12-13 9-13 3-10v-11l-4-10-9-10-9-8zm-809 1v1h5v-1zm1160 0 4 1zm-1164 1m1170 0m-1180 1m342 0-7 10-5 10-3 10v18l4 13 8 13 8 8 7 4-1-6-6-12-9-14-4-12-1-6v-10l3-12 6-10 3-4zm506 0 7 11 4 11v19l-4 12-9 15-7 13-1 5 5-2 10-9 7-11 5-13 1-5v-14l-4-14-7-12-5-6zm237 0m106 0m-1241 1-3 2v3l15-1 29-3v-1zm1252 0v1l37 4h7l-1-4-2-1zm-522-1-6 9-4 5-17 13-16 12-6 8-4 6-6 4-15 4h-28l-15-4-6-4-7-8-11-15-7-8-14-8-10-9-2-1 1 8 6 21 7 16 8 11 10 10 13 9 18 10 22 9 7-1 23-10 19-11 11-9 10-10 8-14 6-16 6-24zm-810 5m-1 1m121 0-43 5 6 11 4 11 2 18h7l5-1v-2l-5-2-1-4 8-10-1-5-6-6-1-4 1-3h14l6 3 4 6v9l-4 8-7 6-3 3h9l24-4 16-5 7-5 4-6v-9l-4-6-8-7-5-1zm1183 0-7 3-6 5-3 5-1 7 4 8 9 7 19 5 20 3h9l-10-8-4-7v-12l3-5 6-3h14l1 1-1 7-6 6v5l7 8v5l-5 2v2l5 1h7l1-15 4-13 6-10v-2l-43-5zm-1142 2m1130 0m-1129 1 6 9 1 8-3 9 5-2 5-4 2-3-1-7-5-5-7-5zm9 0m1110 0m8 0-11 7-3 3-1 5 4 6 7 5 2-1-3-6v-7l4-8 3-4zm-1117 1 5 4 3 4 1 7-4 6-8 6-14 6-18 5-28 4-20 2-1 1v5l13-2 47-9 12-3 16-8 9-7 4-6v-6l-5-5-9-4zm1105 0-10 5-3 3-1 5 3 6 9 8 16 8 8 3 48 9 15 3h3l-1-5-1-1-36-4-20-4-15-5-13-7-5-5-2-3v-7l5-6 3-3zm-834 5m566 0m-567 1m7 0-8 8-10 13-8 14-4 12-1 5v21l3 11 6 12 7 8 10 7 12 5 13 2h15l20-3 17-5 21-11 22-12-3-1-17 3-11 1h-12l-17-2-17-5-13-7-12-11-7-11-5-11-3-13v-13l4-17zm553 0 3 12v22l-5 16-8 13-7 8-10 7-12 6-14 4-17 2h-12l-19-2-10-1 5 4 19 10 14 8 15 5 15 3 10 1h15l16-3 12-6 10-9 6-8 5-12 2-9v-16l-3-14-8-16-10-14-11-11zm8 0m-570 1-12 11-9 10-7 12-5 16-1 5v21l3 12 6 12 9 10 8 6 10 5 15 4 9 1h14l21-3 15-4 16-6 23-12 16-11 4-4-6 2-26 14-18 10-14 5-15 3-9 1h-20l-16-3-14-7-9-8-7-10-5-13-2-13 1-17 3-12 10-19 11-14 3-4zm571 0m-193-1-6 26-7 21-10 21-10 14-9 10-10 8-16 8-12 3-8 1h-11l-14-2-15-5-11-6-11-9-9-10-10-15-8-17-8-24-5-22h-2l-3 12v28l3 20 5 15 10 17 14 22 12 18 3 3 9-1 41-9h9l48 10 4-1 5-8 9-17 13-29 5-17 4-25 2-23v-17zm194 2 4 6 9 12 8 14 4 13 1 5v21l-4 15-7 12-10 10-10 6-14 4-7 1h-20l-20-3-16-5-23-12-23-13-6-2 5 5 15 10 18 10 20 8 21 5 16 2h14l14-2 12-4 11-6 10-9 7-11 4-11 2-10v-15l-3-15-7-16-10-13-8-8-5-4zm-329 3v4l2-1zm75 0 1 4zm-758 2 5 4 10 9 6 7 4 9v6l-4 6-16 9-13 5-57 23-9 4 3 1 24-9 37-12 33-9 7-8 4-10v-8l-3-10-5-5-21-12zm823 0-3 36-4 24-5 16-10 23-2 6 3-3 12-21 11-23 7-21 2-10-8-21-2-6zm625 0-22 12-4 5-3 8v12l5 10 6 6 36 10 37 12 23 9 3-1-28-12-36-14-17-7-17-9-3-5v-8l6-12 9-9 9-6zm-1457 2-3 2 9 6 6 5 6 10 1 4v15l8-4 4-4v-9l-5-8-8-9-12-8zm697 0-1 4h2l1-4zm64 0 2 5 2-3-1-2zm704 0-11 7-9 9-6 12 1 7 5 4 7 3-1-11 2-9 6-9 8-7 6-4-2-2zm-1074 2-18 3-16 5-12 5-11 7-10 8-8 8-12 17-8 15-8 20-7 23-6 29-3 24-1 14v23l24 7 33 7 31 4 18 1h13l25-2 23-5 16-6 13-7 12-9 14-12 11-12 10-14 9-19 3-12-1-4-3 2-1 8-6 14-8 12-9 11-11 11-14 11-17 11-15 7-18 5-13 2-14 1h-19l-24-2-30-5-25-6-16-5v-27l2-25 4-26 6-26 9-27 6-11 7-9 11-11 14-9 19-9 20-6 19-4 24-3v-2zm656 0 1 2 29 4 25 6 20 8 16 9 11 9 7 7 9 14 6 14 7 23 6 28 3 22 2 34v16l-9 2-32 8-30 5-25 2h-19l-20-2-18-4-16-6-15-9-11-8-11-9-15-15-10-14-8-17-2-10h-3l1 9 5 14 7 13 9 12 9 10 9 9 17 13 10 6 15 6 13 4 24 4 16 1h13l28-2 32-5 30-7 16-5 1-1v-12l-2-30-4-27-7-30-8-23-10-21-10-15-11-13-14-11-17-9-19-6-18-3zm431 0-12 8-7 7-5 10v11l3 6 14 7 55 22 20 9 10 5 2-1-4-4h-3l1-5h11l14 4h14l6-3 7-7 4-2h7l-1 5-6 9-8 6-9 4-12 1-10-1 5 4 12 8 4-1 13-12 21-21 9-11 8-11 2-6-25 10-21 5-20 1-16-2-16-5-14-7-9-7-5-5-6-8-4-10-1-5-18-6zm-1487 0-25 7-3 8-6 12-9 10-10 7-17 8-17 4-19 1-17-2-15-4-16-6-8-4-2 1 6 10 9 11 18 20 7 7 8 7 7 6 5-2 14-9-3-1-12 1-12-3-10-7-6-7-3-7 1-1 9 1 10 9 4 2h14l15-4h10l1 4-5 5 6-2 29-13 48-19 16-7 4-8v-8l-4-10-7-8-14-9zm717 1-2 2v10h3l1-3v-8zm44 0-1 1v12h3v-12zm-50 1-1 5h2v-5zm55 0 1 6 2-1v-5zm-41 2-4 9v4l6 1v-14zm10 0-3 2-2 12 1 1h7l-2-15zm8 1-2 9v5h6l1-5-2-9zm8 0v12h6l1-2-4-10zm-568 3m452 9-7 9-5 4 2 12 6 16 10 19 10 14 12 14 11 11v-3l-14-22-14-23-5-15-3-18-1-17zm-239 1-20 4-16 7-12 8-12 11-8 11-6 10-6 16-3 16v26l3 16 5 13 7 13 11 12 7 6 16 8 14 4 7 1h26l18-3 21-6 18-8 12-8 10-9 10-11 10-15 8-15v-2l-24 2-9 15-11 12-8 7-13 8-15 7-16 5-15 2-16-1-16-5-12-7-11-10-9-13-7-16-3-14-1-16 2-17 4-13 7-11 9-9 14-8 15-5 17-3 18-1 5-12v-2zm672 0 1 5 3 9 26 2 17 4 12 5 13 9 8 9 6 12 3 11 1 6v23l-4 18-8 17-8 10-9 9-14 8-11 4-14 2-16-1-19-5-18-8-12-8-12-10-10-13-6-11-24-2 1 5 11 19 10 13 8 9 13 10 15 8 19 7 16 4 13 2h27l15-3 13-5 11-7 10-9 8-11 7-14 4-14 2-14v-17l-2-15-4-14-8-16-8-11-13-13-14-9-15-6-12-3-7-1zm-946 4m1243 0m-1181 1v3l7 6 4 7 2 10 4-4 1-9-4-6zm9 0m1101 0m9 0-12 7-4 5v8l4 7h1l2-12 6-8 6-5-1-2zm-1108 1 8 8 1 2v10l-3 6v2l-5 2-6 3 4 1 8-4 6-5 3-7-2-9-4-5-7-4zm1096 0-8 5-5 8v7l4 6 8 6 5 2 4-1-10-5-4-7-1-9 3-6 7-5zm-1119 1-48 9-19 4 1 8 4 8 1 4 1 16 8-1-1-7 1-9-4-7-3-4 2-5h7l5 3 4 8v8l-4 8-4 4 25-5 26-7 16-6 3-2 1-6-3-9-7-8-6-4zm1138 0-9 7-5 8-1 3v7l1 3 18 7 27 7 18 4h5l-6-9v-11l4-7 4-3h9v7l-5 6-1 2v17l7 1 2-18 4-9 2-4v-5l-50-10-17-3zm342 15m-1612 15m1407 0m-1414 1 5 5 5 6 3 10-1 13-3 10 5-2 13-8 4-4-1-7-8-9-10-8-10-6zm9 0 4 4 9 7 8 7 4 7-1 7-7 6-22 12-19 9-20 9-16 8-14 8-10 9-2 3h3l10-8 13-8 16-9 31-14 33-13 10-4 2-8v-10l-4-8-10-8-12-5zm1401 0-12 5-9 6-5 6-2 4v13l3 7 27 10 26 11 29 14 18 11 12 9 3-1-8-8-10-6-18-10-19-9-24-11-21-11-9-6-2-3v-7l9-11 11-9 5-4zm10 0-12 8-12 11-5 7 1 5 11 8 9 5 2-1-4-12v-12l4-10 4-5 5-4zm-1430 2-40 12-33 12-23 10-20 10-9 6 5 5 9 8 12 9 18 13 9 6 4-1 4-5-8-2-14-9-10-9-8-8-1-7 4-5 16-7 18-6 9-2v3l-8 7-14 12-3 5 1 6 5 4 7 1 32-4 1 4 6-2 28-13 16-8 6-12 1-3v-14l-5-10-7-5zm164 0m1112 0m161 0-8 5-5 7-2 7v7l4 13 3 6h3v2l35 16 12 5 2-3h10l24 3 7-2 3-3 1-5-3-5-9-9-11-9-3-3v-2l16 4 17 6 12 6 2 3v7l-7 8-11 10-14 9-8 2 5 7 9-5 16-12 11-8 16-13 4-4-17-10-23-11-31-12-40-13-14-4zm-1276 1m1118 0m-1120 1m1124 0m-1108 1-1 2 4 11v13l-4 11-4 6 6-2 8-7 3-5 1-4v-10l-3-8-5-6zm8 0 5 7 2 6v13l-4 9-4 5-10 6-23 7-21 7-13 6 1 3 11-3 41-14 12-4 9-7 8-9 4-10v-8l-3-7-5-5-6-2zm1072 0-8 4-5 8v11l3 8 8 10 9 7 43 14 19 7h3l-1-4-25-10-25-7-14-7-6-7-3-7-1-10 3-10 4-7zm9 0-7 8-2 5-1 8 2 8 4 6 7 6 6 2-6-10-2-5v-17l4-10zm8 2-4 8-1 3v13l4 10 5 6 9 6 21 6 5 1-1-5v-12l5-8 7-4 8-1 2 1v6l-7 5-3 6v8l1 7h-2v2l7 3 5-17 6-10 4-5 6-5-1-2-52-16-21-6zm-1104 0-48 14-27 9 5 5 8 9 5 11 3 12 6-1 2-2-2-4v-14l-4-5-6-5v-6l11 1 6 4 5 6 1 3v10l-2 7 23-7 7-3 9-8 5-10 1-4v-9l-4-11-1-2zm-33 4m-4 1m1179 0m-1183 1m1187 0m-1192 1 4 1zm1195 0 3 2 33 10-1-5-31-7zm-1200 1-27 6-1 5 11-3 22-7v-1zm1224 0m-768 1m-1 1m298 0m-300 1m301 0m13 1m-965 4m-3 1m673 0-7 25-10 29-11 25-8 17-13 23-14 21-9 12-9 11-9 10-14 15-8 8-18 13-17 11-14 8v10l2 2 15-9 16-12 14-12 13-12 11-11 7-8 9-10 11-14 12-15 13-18 12-17 11-17 4-20 12-49v-16zm935 0m-1692 1m82 0m938 0-1 12 2 16 6 30 4 10 2 12 14 22 8 12 12 17 13 17 13 16 11 12 7 8 15 15 8 7 16 13 24 16 8 4 1-12-18-10-19-13-12-9-12-11-13-13-12-14-15-20-11-17-12-21-13-26-11-27-9-27-5-19zm674 0m-1693 1 2 6 1 2 3-1-4-6zm79 0m1617 0m80 0m-1699 1m1621 0m77 0-4 4 1 3 3-3 1-4zm-1710 1m10 0m1625 0m-1636 1m9 0m1629 0m9 0m-1640 1m669 0m296 0 2 5 11 19 12 19 5-5 8-6 10-4-2-2-21-10-19-12zm669 0m8 0m-1652 1m8 0m669 0-11 8-21 12-13 6 2 2 14 7 5 6 3-1 16-26 7-12v-2zm969 0m8 0m-1656 1m8 0m1642 0m8 0m-1660 1m8 0m1646 0m8 0m-1665 1m1666 0m-1711 2-2 2 1 5 2 2 4-5zm1757 0-3 3 2 5h3l2-6zm-1020 7m-729 1-4 5 1 4 3 3 6-7-5-5zm1012 0m729 0-4 4 2 5 3 3h2l3-5-2-5zm-1013 1-16 34-14 28-12 22-13 21-9 12-7 7-7 8-11 11-8 7-11 11-8 7-16 15-8 7-9 8h3l18-10 21-14 11-9 15-15 9-11 10-12 12-17 12-19 13-24 9-19 13-33 4-12zm215 0 1 2zm-747 1-3 2 10 6 10 9 6 8 1 3v7l-3 6-7 7-8 5 2 1 21-9 2-5v-14l-4-8-8-7-16-11zm817 0 2 9 10 27 13 29 14 26 11 17 12 17 9 11 12 14 14 14 17 13 19 12 14 8 2-1-30-27-30-28-22-22-8-10-11-17-14-25-18-35-13-28zm531 0-16 11-9 8-3 6-1 10 1 9 21 9 2-1-12-9-4-7v-9l4-7 5-6 12-9 5-4zm-602 1m-623 1m1104 0m-482 1m612 0-12 7-12 11-4 7v7l4 6 4 3v-10l3-10 6-9 8-6 8-4-3-2zm-1365 0-3 2 11 6 8 8 5 11 1 14 5-4 3-9-3-8-5-6-10-8-10-6zm-179 3-6 7 1 4 3 3 5-9-1-4zm168 1-29 12-29 14-14 8-14 10-2 3 24 14 25 13 5-2 2-2-7-9-8-3-14-4-5-5 1-5 8-7 16-8 8-3-7 8-6 7 2 4 6 5 9 4 7 1h8l10-6 4-1 2 6 20-9 6-5 2-5v-10l-4-9-6-8-10-6-6-2zm1554 0-1 3 5 9 4-2 1-3-6-7zm-169 0-11 4-9 8-6 12-1 7 2 8 7 6 19 9 1-4v-2l8 2 8 5h8l12-3 9-6 3-5-7-8-6-6 10 3 12 6 9 7 1 1v6l-5 4-13 4-8 3-5 6-2 4 4 3 6-2 22-11 22-13 1-3-14-10-17-10-27-13-27-11zm-1546 5-6 12 5 6h2l7-9-1-4zm315 0 5 4 8 6 5 10v10l-4 8-9 10-5 4-14 8 3 1 12-5 14-14 7-11 2-5v-12l-4-8-7-5-3-1zm1071 0-8 4-5 6-2 6v7l4 10 6 9 9 10 6 5 8 3 3-1-14-9-10-10-5-9v-13l6-9 8-6 3-3zm323 1-7 6 6 8 3 3 5-5-1-5-4-7zm-1400 0-3 2 10 5 3 3h2l2 4 3 9-1 14 4-5 2-5-1-10-6-8-10-7zm1092 0-12 7-7 8-2 4v9l4 8 2 1-1-6v-10l3-7 4-5 12-7zm44 1m-389 1m-401 1 2 4 5 12 1 5 1 15 5-5 9-13v-5l-5-6-12-6zm398 0-11 4-8 7-2 6 12 17 3 3v-12l3-13 6-12zm355 0-13 7-6 7-2 6 1 10 7 14 14 9 5 2-1-5-1-3v-12l4-8 7-6 6-2 10-1-2 7-10 9-4 8-2 12-3 3 9 3 5-5 6-17 7-11 10-10v-2l-44-15zm-1108 0-36 12-9 4 5 5 7 8 6 10 6 17 2 3 4 1 8-3-4-4-2-13-6-9-7-5-2-6v-2l13 2 7 4 5 6 2 6v9l-2 9 6-2 11-7 4-5 5-11v-12l-5-8-9-6zm456 4-10 3-8 11-14 15-3 3-1 13 3 12 6 10 8 8 12 6 4 1h17l11-4 8-6 8-9 4-8 2-9v-9l-3-12-7-11-9-8-12-5-4-1zm184 0-12 4-9 6-7 8-5 10-2 9v9l3 11 5 9 4 5 10 7 11 4h17l11-4 8-6 8-9 5-12 1-13-2-9-7-8-9-10-5-7-13-4zm-89 2-29 7 3 9 3 11v24l-4 14-7 13-9 10-1 2 5-2 21-14 19-14h4l16 12 25 17 2-1-8-9-6-10-5-15-1-5v-19l4-16 3-7-6-2-24-5zm-839 1-8 9 1 4 4 3 8-10v-3l-3-3zm1685 0-4 3 2 4 6 9 5-3v-4l-7-9zm-804 7-5 10-3 12v19l4 14 6 11 11 12 10 7 12 5 8 2h20l16-5 11-7 10-9 6-9-1-8-2-4-6 11-9 10-10 7-11 4-4 1h-19l-13-4-11-7-9-9-7-14-3-13v-9l3-14 5-11zm795 0-5 5 7 13 5-2 3-4-6-9zm-1667 1-7 8-1 4 5 5 4-2 5-9-1-4-2-2zm789 0-4 2 5 10 3 14v8l-3 14-6 12-9 10-10 7-10 4-5 1h-19l-13-4-11-7-8-8-7-12h-2l-2 11 6 8 5 5 8 7 15 7 9 2h19l12-3 15-8 8-7 9-12 5-12 2-7 1-16-3-15-5-11zm210 6m-989 1-7 12 1 4 5 3 8-12-1-4-4-3zm657 0m990 0-6 5 7 12 3 2 5-4-2-5-5-10zm-657 1m-334 1m335 0 1 2zm-336 1 1 2zm337 1 1 2zm-338 1 1 2zm-492 1m831 0 2 6 12 23 16 27 9 12 12 13 21 21 8 7 8 8 8 7 10 9v-3l-12-14-9-11-12-14-12-13-9-10-9-11-14-17-13-18-15-22zm-340 1-13 19-14 19-11 14-12 14-11 12-7 8-10 11-9 11-11 13-9 11 1 2 9-9 8-7 17-16 9-9 8-7 8-8 7-8 9-11 15-25 14-26 3-6zm-642 1-7 11-1 4 4 3 4-1 7-11-1-3zm1625 0-5 4 1 4 7 11 6-4 1-2-8-12zm-1458 3-2 2 15 7 11 8 8 9 3 7-1 8-5 5-1 3-5 1-6 3 3 1 21-9 1-5-4-14-6-9-10-8-19-9zm115 1m1062 0m113-1-15 7-10 6-7 7-5 10-3 14 11 5 10 4 2-1-9-5-6-7v-8l4-8 10-10 11-7 12-5-3-2zm24 4m-1470 1-9 13 4 4 5 2 7-13-2-4zm131 0m16-1-5 2v2l23 10 10 7 7 8 3 9 3-3v-7l-6-9-8-8-10-6-11-4zm1310 0-14 4-11 6-9 8-6 9-1 7 4 4 4-11 6-7 14-8 19-8-3-3zm15 1m131 0-6 4 7 15 5-2 4-3-2-4-6-10zm-1474 1m1345 0m-1347 1m-2 1m-2 1m1344 0-25 11-11 7-6 7-2 5v5l2 3h2v-3l13 3 10 1h10l9-3 3-4 1-5-3-5-5-5v-6l5-1 24 13 6 4v5l-34 14-6 2h-9l-7-1 5 4 6 3 41-14 26-11-4-4-18-10-24-12zm-1346 1m15-1-28 13-20 11-6 4 3 2 19 8 30 11 13 4 7-1 6-4-2-1-4 1h-9l-16-6-24-10-1-4 5-4 26-14 5 1-1 7-7 7 1 8 5 4 6 2h10l22-3 2-1 1 3 3-3-2-9-5-7-10-7-20-9zm1347 1m2 1m-1474 1-7 14v2l7 4h2l7-12-1-4zm1476 0m105 0-8 5 2 5 6 10 5-2 3-2-1-5-6-11zm-1478 1m1375 0m-1377 1m1379 0m-1381 1m1383 0m-1385 1m1387 0m-1390 1m842 0 1 2zm550 0m-1394 1m1396 0 4 3 4 1-3-3zm-1398 1-3 3 5-2zm847 0 1 8 8 37 6 33 3 19 6 12 2 12v13l7-6 7-7 4 2 3 2-4-52-10-14-12-20-13-24-7-15zm-924 2-8 14 6 4h2l7-13-2-4zm1554 0-5 3 7 14 2 1 6-3-1-4-7-11zm-1482 1m1411 0m-1412 1m558 0 1 2zm701 0m155 0m-1416 1m153 0m24 0m1063 0m23 0m-1112 1m29 0 5 5 5 8 2 8v19l-4 10-3 6h3l7-16 2-8v-16l-4-9-7-6zm379 0-12 23-16 26-14 19-4 5-5 54-1 10 7-6 16-16 4 1 4-16 6-12 8-47 8-37zm676 0-8 5-5 10-1 5v8l4 16 6 12 3-1-5-8-3-10v-12l3-13 4-6 6-5zm31 0m153 0m-1270 1m15 0-15 6 4 4 9 7 9 9 8 13 4 10h2l4-9 1-5v-11l-3-12-6-8-6-3zm1084 0-9 3-7 8-3 11v15l4 11h3l5-12 8-11 6-7 13-10 2-2-16-6zm20 0m-1326 1-7 13 1 3 6 3 3-1 7-14-8-4zm204 0m1125 0m203 0-7 4 2 5 6 10 6-2 3-3-8-14zm-1330 1m1130 0m-1283 1m1435 0m-1440 1-5 4 3 1 7-4v-1zm1442 0 5 4 3 1v-3l-3-2zm-518 2m1 1m-955 1-8 14 3 3 6 2 8-13v-2zm956 0m1 1 2 4 11 13 9 11 15 16 7 8 12 14 18 22 1-3-9-11-11-13-12-14-11-13-12-14-9-11-10-9zm549-1-8 4 1 4 7 11 6-2 3-3-8-14zm-960 4m-1 1m-2 1-9 9-9 11-24 28v3l16-17 7-8 9-10 9-11 3-5zm947 2-2 1 3 10 3 6 8-3-6-11-4-3zm-1475 0-3 1-7 11v2l6 3h2l6-14v-2zm8 4-6 14 3 3 4 1 5-12 1-4-4-2zm1458 0-4 2 3 10 3 6 7-3-6-15zm-1332 3-2 2 9 3 16 6 11 7 7 7 6 11 2 12 3 1 5-3-2-10-6-12-9-9-14-8-15-5zm1205 0-20 6-15 8-8 7-7 11-3 9v5l5 3 2-1 4-15 6-9 5-5 8-6 13-6 15-4 1-2zm-1320 1-6 16 7 3 6-12 1-4zm1436 1-5 2 3 10 3 6 7-3-5-15zm-1331 2-27 12 2 2 26 8 26 9 27 11h2l-1-9-4-8-5-6-10-7-13-6-20-6zm466 0-4 18v7l6 7 8 5 12 3 16-1 20-6 16-7-4-1-6 1h-19l-13-3-16-8-12-11zm293 0-8 9-13 9-11 5-12 3h-20l-9-1 3 2 16 7 17 5 16 1 12-3 9-6 6-8-2-13-2-10zm482 0m-1258 1m1243-1-18 5-14 6-11 8-6 7-4 9v7l16-6 35-13 32-10-4-3-24-10zm17 1m-1270 1m9 0m1264 0m8 0m-1347 1-6 13v2l6 2 8-14-3-2zm73 0m1268 0m71 0-5 2 2 6 6 9 5-2-1-5-4-10zm-69 1m-1331 3-7 13-1 2 9 2 6-13-3-3zm1387 1-3 1 1 5 5 10 8-2-2-5-5-9zm-648 1m-93 1m-1 1m-634 1-6 14 9 2 5-14-4-2zm1365 0-4 2 3 10 2 4 8-2-3-9-3-5zm-683 2-32 14-31 12-5 2 2 5 8 16 3 11 1 7v12l-3 15-5 12-7 11-7 8-11 8-12 6-16 4h-19l-16-4-13-7-2 1 7 8 5 4 9 4 4 1h18l19-5 20-8 23-12 24-15 17-12 12-9 7-5v-2h2v2l16 12 20 14 21 13 22 12 21 9 17 5 5 1h18l11-4 6-4 7-7 1-4-16 8-16 4h-19l-16-4-15-8-12-11-7-9-6-12-4-15v-22l4-15 6-12 4-7-31-12-30-13zm-670 2-3 8-1 5 1 1h5l4-10v-3zm1341 0-3 1 2 6 3 8 6-2-4-13zm-1330 3-5 11 1 3 8 2 4-8 1-5zm1321 0-8 3 5 13 10-3-5-12zm-1307 4-5 12v2l5 1 5-12-1-2zm157 1v1l15 4 11 6 6 5 4 7 1 11 6 3 1-2v-11l-6-10-11-8-16-5-4-1zm416 0m144 0m413 0-18 5-11 8-6 8-2 6 1 9 5-1 2-3v-7l4-8 8-7 10-5 15-4v-1zm164-1-4 2 3 10 3 3 3-1-1-6-3-8zm-1284 3-5 11v3l10 3 3-12v-3zm132 0-6 3v1l19 4 15 6 12 7 8 7 1-4-3-6-5-5-9-6-16-5zm1009 0-19 3-13 5-9 6-6 8v5l5-3 10-7 15-7 18-5 6-1v-2zm133 0-7 2 1 10 2 4 7-1 3-1-3-9-2-5zm-1261 4-2 4-1 11 5 1 4-12v-2zm1334 0-71 23-3 2v270l76 76h1v-371zm-1417 1v369l7-6 70-70v-268l-54-18zm1330-1-5 2 5 14 5-2-2-12-1-2zm-1236 4-3 7-2 7 8 2 5-11v-3zm1224 0-5 2 1 7 4 7 7-2-2-10-2-4zm-766 3-2 9v6l11-6-1-3zm307 0-8 7v2l10 6 2 1-2-16zm-752 1-6 13 3 2 5 1 5-10-1-4zm346 0-4 4 1 2 4-4zm854 0-7 3 5 13 6-1 2-1-3-9-2-5zm-915 4-12 4-11 7 2 1 16-6 5-1h14l8 3 4 5 1 8-4 13-1 5 4-1 7-14v-9l-4-8-8-5-7-2zm616 0-11 4-6 7-1 3v10l7 14h4l-5-15v-8l3-5 6-4 4-1h14l16 5 5 1-4-4-10-5-7-2zm-889 1-5 11 1 3h3l6-13zm1174 0-2 2 6 12 4-1-2-6-3-7zm-845 1-10 11-8 10 1 2 13-15 5-6zm334 1-7 9-5 11-3 11-1 12 2 15 5 13 7 11 11 11 13 8 12 4 5 1h19l15-4 13-7 4-3v-11l-1-8-5 5-11 8-12 5-6 1h-11l-12-3-10-5-10-9-7-12-3-12v-13l3-12 7-12 8-7v-2l-18-5zm-654 1-6 12 4 3h2l5-11-1-3zm500-1-18 5v2l8 7 7 12 3 12v13l-3 12-7 12-10 9-10 5-12 3h-11l-12-3-11-6-6-5-3-4h-2l-1 18 10 7 12 5 9 2h19l15-4 11-6 10-8 7-8 6-10 5-15 1-6v-14l-4-16-6-12-5-7zm655 2-2 2 6 12 5-2-1-5-4-7zm-967 1v1l12 3 6 4 4 5 1 10-3 10-2 5 3 2 7-15-1-10-5-10-5-4-2-1zm768 0-5 3-6 8-2 6v8l6 14h3l-1-5-3-9v-10l3-5v-2l10-5 10-2v-1zm-946 2-6 12 3 1 6-10v-2zm259-1-16 4-16 7-10 6-9 12-3 9 10-3 17-5 11-2h18l11 2 5-10 1-4v-7l-3-5-6-3zm617 0-9 2-5 4-1 2v9l5 13 12-2h17l16 3 18 6 5 1-4-10-8-10-5-4-16-8-15-5zm-844 2 3 2 34 16 21 10 4-1 8-8-5-6-10-6-11-4-12-2-13-1zm1055 0-19 2-12 3-10 5-9 8 6 7 3 3 9-3 31-15 20-9v-1zm51-1-3 2 6 11h3l-3-9zm-970 3-23 5-7 3v1l17 2 15 5 15 8 7 6h2l4-10v-9l-4-6-6-4-4-1zm270-1-13 4-9 7-6 8-2 4-2 15v9l7 14 9 8 8 4 8 2h10l10-3 9-6 8-9 4-9 1-5v-11l-3-10-6-9-9-8-7-3zm258 0-15 2-10 5-8 8-6 12-1 4v13l4 11 6 8 8 7 10 4 4 1h10l13-4 9-7 6-8 4-10v-12l-2-11-6-10-8-7-8-4zm210 1m48 0-8 4-5 6v11l4 9 9-6 14-8 16-5 16-2-4-3-19-5-6-1zm-946 1-6 9v3l6 1 5-9v-3zm222 0m678 0m220 0-2 1 1 5 4 7 5-1 1-2-6-10zm71 2-13 5-122 122 6 7 129 129h1v-263zm-1255 2v260l7-6 128-128-6-7-114-114zm74 0-6 11 6 2 5-9-1-3zm1101 0-4 2 5 11 6-1-1-4-4-8zm-1091 4-5 9 1 3 6 1 5-8-1-3zm1081 0-6 3 6 11 7-3-5-11zm64 3-42 15-30 12-29 13-25 13-64 64 1 4 215 215h1v-75l-142-142 6-7 111-111zm-882 2 1 2zm-319 1 6 7 107 107-2 4-139 139v75l7-6 210-210-6-7-54-54-25-13-16-8-27-12-34-13-25-9zm67 0-5 10 4 1 4-8v-3zm1059-1-2 2 5 10 4-2-6-10zm-808 2m558 1m-801 1-4 8 1 3 3-1 4-9zm1042 0-1 3 4 8 4-1-3-9zm-736 1-5 3-6 4-8 8-11 9-14 11-7 5 2 4 28 28 5-4 4-20 3-23 2-15 5 5 8 1 6-3 2-2v-6l-4-4-2-1zm417 0-5 3-1 2v6l5 4 8 1 6-3 2-3 1 2 3 27 2 10 22 22 4-2 24-24-5-4-17-12-11-9-14-12-7-7-2 4-6-5zm79 0m-746 1-7 7v2l4 1 7-6-2-4zm931 0-2 4 8 6 3-3-7-7zm-979 1-4 8v3l4 1 4-10zm790 1m236 0-1 3 4 8 4-2-4-9zm-235 1m144 0-15 3-16 7-8 5 2 5 3-1 5-5 8-5 16-5 6-1 17-1v-1zm-848 0-11 1v1l17 1 17 4 12 6 7 8 4-4-5-5-14-7-14-4zm705 1m-784 1-4 10 4 1 4-7v-3zm785 0m226 0-3 3 5 8 3-1-3-9zm-825 2-19 5-21 9-12 6v2l16-4 38-11h12l5 2 3-6v-2l-4-1zm622 0-3 1 1 5 1 2 6-1h11l15 4 38 11 2-1-1-2-12-5-15-7-15-5-10-2zm-750 1-15 2-1 3 25 12 29 12 10 3 5-1 8-11-1-4-5-5-8-5-12-4-11-2zm873 0-15 3-12 5-8 6-3 5 9 12 5 1 20-7 29-13 15-7-1-3-16-2zm-922 1-4 7 1 3 5-8zm993 0 2 6 3 4 1-3-4-7zm-791 1-4 9 1 2 6-9v-2zm589-1-2 2 8 13 1-3-6-12zm-785 3-4 9 3 2 4-1 2-5-1-4zm981 0-4 3 3 8 6-1 1-2-5-8zm-855 2m49 2-15 4-43 13-6 5-3 5 2 1h28l20-4 24-8 6-12v-2l-6-2zm625 0-5 2 1 5 5 9 16 6 21 5 7 1h27l3-2-7-8-15-5-30-9-15-4zm-790 1-4 9 5 2 4-8v-2zm962-1-4 2 1 6 3 4 4-2-3-10zm-660 4-24 24-8 24-8 18 1 4 39 39 3-1 1-16 1-33 3-45-3-14zm365 0-14 14-2-1v10l3 49 1 25 12 12 7-6 24-24-3-9-11-25-5-15-4-24-6-6zm-658 1-3 7v3l4 1 3-6v-4zm172 0m678 0-2 4 9 12 5 5h3l-2-5-8-10-4-6zm-757 1-14 19 3 1 6-5 9-13zm670 0m180-1-3 1 3 9 2 1 3-3-4-8zm-772 2m8 0m594 1m-764 1-4 10 6 2 3-10zm925 0-3 2 3 10 5-2-1-5-2-5zm-160 1m-605 1m474 0m-625 2-3 11 4 2 4-8-1-4zm907 0-4 3 4 10 5-2-3-11zm-897 5-4 8v4l4 1 5-12zm888-1-4 2 4 12 5-1-1-5-3-8zm-743 1-5 3v9l1 2 6-2v-7l-1-5zm598 1-1 1v10l6 2 1-4v-7zm-734 2-5 13 5 1 4-8 1-4zm867 1-1 3 4 10 5-1-3-10-1-2zm-742 1-2 1v12l4-1-1-12zm620 1-1 3v8l4 1v-12zm-736 1-4 10v3l5 1 5-12zm851 0-4 2 4 11 3 1 3-1-3-10zm-745 2-3 2-1 4v7l7-2v-11zm47 0-20 12-14 7-6 2 2 4 38 38 4-2 29-29-6-7-25-25zm591 0v11l4 2h3l-1-11zm-734 2-4 9v3l7 1 4-10-1-2zm830 0-4 2 3 10 4 1 4-1-1-5-3-7zm-746 2-4 2-1 10 7-1 2-7v-4zm608 0-27 27 6 7 25 25 4-2 37-37-2-2-18-6-21-11zm53 0v8l1 3 8 1-1-10-5-2zm-733 1-4 10 1 2h6l2-11zm808 0-4 1 1 8 2 4 5-1-1-7-2-5zm-62 2v8l3 3h7l-1-9-6-2zm-737 1-2 10 8 1 2-10-2-1zm51-1-7 2-1 9 10-1 1-10zm734 1-2 1 2 10 7-1-2-10zm-772 1-3 9v1h7l2-9zm738 0 1 9 1 1h5l-1-9zm-727 1-2 9h6l1-9zm13-1-4 2-1 8h6l1-3v-7zm725 1 1 10h6l-2-10zm15-1-5 1 1 8 1 2 6-1-1-7zm-159 4m1 1 1 10 5 18 7-6 4-4-2-4-14-14zm-677 1m665 1-4 3-1 7 4 5 5 1 4-2 2-4-1-7-4-3zm-431 1-9 9 2 4 3 2 5-1 3-3 1-7-3-4zm216 3-24 11-27 11-27 10 6 8 6 9 5 13 2 10v19l-3 13-8 16-8 10-8 7-14 8 3 1 18-8 21-11 24-15 17-12 17-13h4l18 14 24 16 20 12 23 12 9 4 3-1-10-6-10-9-7-8-8-15-3-11-1-7v-13l3-15 6-14 9-12 1-2-36-14-28-12-13-6zm-317 3-8 3-41 41 6 7 40 40 7-6 40-40-2-4-41-41zm646 2-41 41 2 4 44 44 7-6 40-40-6-7-35-35-4-1zm-563 10-31 31 2 4 15 15 2-2 4-20 6-16 3-7v-5zm482 0-12 12 3 9 5 19 3 25 7-6 26-26-2-4-29-29zm-79 11-10 8-5 3v2l9 6 7 6v-25zm-334 1-1 8v16l7-6 9-6v-2l-10-7zm-54 3-13 30-5 13 1 4 60 60 4-2 2-2v-12l-1-19-3-9-1-5v-15l-43-43zm307 5-9 10-8 16-3 13v14l4 16 6 12 9 11 12 9 11 5 12 3h19l14-4 11-6 2-3 1-19-7 6-9 6-11 4-13 1-11-2-12-5-10-9-6-8-4-9-2-11 1-14 4-11 6-10 9-8 2-2-8-3zm-175 0-14 4-1 2 9 7 6 8 5 11 2 11-1 14-5 13-6 8-7 7-12 6-6 2-13 1-12-2-14-7-8-6v11l1 9 14 7 12 3h19l14-4 13-7 12-11 7-11 5-11 2-9v-19l-4-15-6-11-9-10zm309 6-31 31-4-2-9-9h-1l1 9 1 5v13l-3 11-1 12v12l14 14 4-2 47-47-1-7-9-24-7-16zm-356 3-11 4-6 4-5 5-4 5-4 9-1 4v12l3 10 6 9 8 7 8 4 9 2 12-1 10-4 9-7 6-9 3-8 1-5-1-13-4-10-9-10-10-6-8-2zm260 0-10 3-9 6-8 9-4 10-1 13 3 11 6 10 8 7 8 4 10 2 12-1 9-4 8-6 6-7 4-10 1-4v-11l-3-10-5-8-5-5-5-4-9-4-4-1zm-396 7-46 46 6 7 158 158 1-3-7-33-3-15-1-4-2-20-4-38-3-9-3 3-4-2-60-60-2 1-3 11v6h-2l-2-11-1-17-20-20zm553 0-36 36-3 11h-1l-1-5-7 6-45 45-7-6-8-8h-1v15l-2 6-5 42-1 14-5 21-7 31-4 16h4l177-177-6-7-40-40zm-604 51-284 284 6 7 423 423 4-2 86-86v-6l5 1 83-83-1-5-247-247 2-4 99-99-2-11-7-8-164-164zm654 0-177 177 2 4 103 103-2 4-248 248 6 7 172 172 7-6 424-424-6-7-278-278zm-333 23-34 15-39 15-3 1 2 4 7 11 4 10 2 10v15l-3 13-6 12-8 10-10 8-12 6-13 3h-16l-11-2 2 4 10 6 8 2h12l17-4 20-8 21-11 22-14 18-13 11-8v-2h2v2l19 14 21 14 15 9 21 11 19 7 14 3h12l10-3 9-6 1-3-12 2h-16l-12-3-14-7-9-7-9-12-5-11-3-16 1-16 4-12 6-11 5-7-32-12-28-12-16-7zm101 20m-204 1m207 0m52 0m-307 1m46 0m212 0m-257 1 2 2 11 3h13l11-2v-1h-24zm41 0m219 0m-223 1 4 1zm226 0m40-2-13 3h-23l4 2 7 1h13l13-4 1-2zm12 7m-326 1 1 17 1 8 4-4 7-8 3-2v-2l-11-6zm325 0-11 7-4 2v2l8 7 5 7h1l2-16v-9zm-77 4-8 9-6 12-3 13v10l2 10 5 12 8 11 10 8 10 5 11 3h17l13-4 5-3 3-11-1-4-9 6-9 3-10 1-12-2-10-5-9-8-7-14-1-5v-13l3-10 6-10 9-8-1-2zm-172 0-14 4v3l9 8 7 14 1 5v13l-3 10-6 10-8 7-10 5-14 2-12-2-12-6-4-3 2 13 2 4 13 5 5 1h16l12-3 11-6 10-9 7-10 5-13 1-5v-16l-4-13-6-11-6-7zm-43 9-10 4-8 6-6 10-2 9 1 11 5 10 4 5 10 6 7 2h10l11-4 8-7 5-7 2-6v-15l-4-9-7-8-8-5-6-2zm248 0-10 4-8 7-5 7-2 6v15l4 9 7 8 8 5 7 2h10l11-4 7-5 7-11 2-10-1-10-5-10-4-5-10-6-6-2zm-119 75-24 11-35 14 9 18 2 6 1 7v11l-3 13-6 12-9 10-11 7-10 4-17 2 3 3 9 4 5 1h9l16-4 17-8 17-11 16-12 10-8 1-2h2l5 5 12 10 16 11 17 10 14 6 12 3h10l10-3 7-4v-1l-13-1-13-4-11-7-3-3h-2l-2-4-7-10-4-10-1-5v-20l3-10 5-10 4-6-30-12-27-12zm-143 26 2 10 6 18 8-12 4-5-14-7zm286 1m-75 1-7 8-5 12-2 11 2 16 7 14 7 8 11 7 12 4h18l4-1 3-8-9 2h-13l-11-4-6-4-7-8-4-9-1-5v-10l3-10 5-8 9-8 2-2-16-5zm-136 0-16 5 5 4 8 8 5 11 1 5v10l-3 10-6 9-7 6-9 4-4 1h-13l-11-3 2 7 2 2 4 1h19l11-4 10-6 7-7 7-12 3-12v-12l-3-11-5-10-5-6zm210 0-10 6-7 3 6 7 4 7h2l6-20zm-245 10-10 3-8 6-6 10-1 4v10l4 10 5 6 6 4 5 2h15l10-5 7-8 3-8v-12l-3-8-8-9-9-4zm202 0-11 4-8 7-4 7-1 4v12l4 9 6 7 10 5h14l9-4 5-4 4-6 3-9v-9l-4-10-6-7-10-5zm51 3-6 7-6 18-2 12-4 8-6 10-8 18-2 5-12 22-11 19-16 24-12 16-8 10-11 13-18 20-11 11-8 4-3 1h-9l-10-4-12-11-18-18-7-8-11-13-13-17-12-17-13-21-10-18-12-24-10-24-4-9-5-17-4-11-7 6-90 90 2 4 244 244 4-2 245-245-6-7-96-96zm-269 56m119 8-18 10-19 9-21 7-15 3h-12l-12-3-6-2 2 6 13 22 12 18 14 19 11 13 9 11 31 31 8 4h9l6-3 23-23 7-8 11-13 10-13 13-18 11-17 9-15 7-13-16 4h-12l-15-3-21-7-27-13-10-6z" fill="#fff"/>
<path transform="translate(560,1052)" d="m0 0 19 1 17 4 15 6 13 8 11 9 8 8 10 14 8 16 5 17 2 18-1 18-4 17-6 15-9 14-9 11-11 10-14 9-15 7-15 4-6 1h-28l-18-4-16-7-13-8-14-12-10-12-9-16-5-12-4-18v-28l4-18 7-16 7-12 11-13 11-10 13-8 12-6 17-5zm1 32-14 2-16 6-12 8-12 12-8 13-5 15-1 5v22l4 15 8 15 11 12 10 8 15 7 12 3h22l15-4 15-8 10-9 8-9 6-10 5-14 2-15-1-14-3-12-8-16-11-13-11-8-14-7-12-3z" fill="#fff"/>
<path transform="translate(1849,1052)" d="m0 0 19 1 17 4 16 7 10 6 10 8 13 13 10 15 8 19 4 20v22l-3 16-7 19-8 13-8 10-11 11-13 9-16 8-13 4-11 2h-27l-18-4-17-7-11-7-10-8-10-10-10-14-8-17-5-19-1-8v-18l3-18 6-16 8-15 9-11 12-12 15-10 13-6 12-4 11-2zm1 32-14 2-12 4-11 6-10 8-9 10-6 10-5 14-2 11v14l3 14 5 12 7 11 9 10 10 7 12 6 9 3 6 1h22l14-4 14-7 10-8 9-10 7-12 4-11 2-11v-17l-4-16-7-14-8-10-7-7-11-7-11-5-11-3z" fill="#fff"/>
<path transform="translate(1204,2180)" d="m0 0 4 2 12 9 16 9 14 6 12 3 7 1h14l-2 6-8 14-12 17-10 13-8 10-9 11-9 10-7 8-10 9-4 1-7-8-9-9-7-8-9-10-9-11-13-16-11-16-8-14v-2l27-7 20-7 16-8 7-6zm1 16-5 6-3 11v28l3 23 5 26 2-2 7-19 5-21 1-7v-26l-3-11-4-6-3-2z" fill="#fff"/>
<path transform="translate(555,1110)" d="m0 0h18l12 4 10 7 8 9 5 10 2 7v18l-4 12-8 11-8 7-13 6-5 1h-16l-10-3-12-7-9-10-5-10-2-8v-16l3-10 5-9 8-9 11-7z" fill="#fff"/>
<path transform="translate(1844,1110)" d="m0 0h17l10 3 10 6 6 5 7 10 4 11 1 5v11l-3 12-4 8-9 10-8 6-10 4-5 1h-15l-13-4-10-7-7-7-7-14-2-10v-8l2-10 7-14 10-10 14-7z" fill="#fff"/>
<path transform="translate(1296,1614)" d="m0 0 12 1 9 4 8 7 6 10 1 4v15l-4 9-6 8-7 5-9 3h-13l-9-3-9-7-6-9-2-6v-16l4-9 7-8 7-5z" fill="#fff"/>
<path transform="translate(1112,1614)" d="m0 0 11 1 9 4 8 7 5 8 2 5v16l-4 10-7 8-8 5-7 2h-13l-10-4-8-6-6-9-2-6v-15l4-10 7-8 7-5z" fill="#fff"/>
<path transform="translate(886,1199)" d="m0 0 9 1 15 9 17 13 16 13 14 12 11 9 15 14 8 7 12 11-3 1-28-11-25-11-17-8-21-12-12-9-10-9-6-10-1-3v-7l4-8z" fill="#fff"/>
<path transform="translate(1525,1199)" d="m0 0h6l5 8v11l-4 8-13 13-15 10-18 10-27 13-37 15-5 2-4-1 10-9 13-12 11-9 13-12 11-9 17-14 16-12 16-10z" fill="#fff"/>
<path transform="translate(1074,1875)" d="m0 0 12 1 10 5 7 8 4 9v14l-4 10-9 9-10 4h-13l-10-4-7-6-4-6-3-11 1-11 5-10 7-7 9-4z" fill="#fff"/>
<path transform="translate(1334,1875)" d="m0 0 11 1 10 5 8 9 3 7 1 10-3 12-7 9-10 6-4 1h-13l-10-4-5-4-6-9-2-6v-14l6-12 8-7 7-3z" fill="#fff"/>
<path transform="translate(1074,1748)" d="m0 0h15l9 4 8 7 5 10 1 11-2 9-6 9-7 6-8 3h-15l-12-6-6-7-4-10v-13l4-10 6-7z" fill="#fff"/>
<path transform="translate(1325,1748)" d="m0 0h15l10 5 5 4 6 10 1 4v13l-4 10-6 7-12 6h-15l-9-4-8-7-5-10-1-11 2-9 6-9 7-6z" fill="#fff"/>
<path transform="translate(1238,1386)" d="m0 0h15l13 5 5 5 3 8v15l-2 9-4 6-3 3-3 1h-14l-13-5-9-5-7-8-3-8v-11l10-9z" fill="#fff"/>
<path transform="translate(1165,1385)" d="m0 0 10 3 10 7 5 6 1 7-3 11-6 8-10 6-14 5h-14l-5-3-4-6-2-8v-16l3-10 6-5 6-2z" fill="#fff"/>
<path transform="translate(1078 2e3)" d="m0 0h10l10 4 8 9 2 5v14l-5 10-7 6-8 3h-10l-10-4-8-9-3-10 1-10 4-8 8-7z" fill="#fff"/>
<path transform="translate(1326 2e3)" d="m0 0h10l10 4 8 9 2 5 1 9-2 9-6 8-5 4-8 3h-10l-8-3-8-7-4-8v-15l4-8 8-7z" fill="#fff"/>
<path transform="translate(1306,2110)" d="m0 0 9 1 8 4 6 8 2 6v8l-3 8-4 5-6 4-3 1h-13l-8-4-6-7-2-5v-12l4-8 7-6z" fill="#fff"/>
<path transform="translate(1103,2110)" d="m0 0 10 1 8 5 6 8 1 3v12l-4 8-7 6-5 2h-13l-6-3-5-4-4-7-1-4v-8l3-8 5-6 8-4z" fill="#fff"/>
<path transform="translate(924,1544)" d="m0 0h7l8 4 5 8v8l-4 8-6 4-3 1h-7l-8-4-4-6-1-3v-7l4-8 6-4z" fill="#fff"/>
<path transform="translate(1485,1544)" d="m0 0h8l6 3 5 6 1 2v11l-4 6-5 4-3 1h-8l-6-3-5-6-1-2v-11l4-6 5-4z" fill="#fff"/>
<path transform="translate(1605,1440)" d="m0 0h13l9 3 6 7-1 6-7 6-7 2h-13l-11-4-4-5v-6l4-5z" fill="#fff"/>
<path transform="translate(799,1440)" d="m0 0h13l9 3 6 7-1 6-7 6-7 2h-13l-9-3-5-4-1-2v-6l4-5z" fill="#fff"/>
<path transform="translate(1071,1316)" d="m0 0h3l-1 10-4 22-2 18-1 50-3 12-7 11-8 6-10 3-3-1 1-4 11-4 5-4 5-8 3-11 1-49 3-26 5-23z" fill="#fff"/>
<path transform="translate(1338,1316)" d="m0 0 4 1 5 21 3 22 1 17v35l2 11 5 10 7 6 11 4-1 5-9-2-8-5-7-8-4-10-2-14v-33l-2-25-4-23-2-11z" fill="#fff"/>
<path transform="translate(1193,1205)" d="m0 0h29l20 3 21 6 4 2v4l-8-1-17-5-19-3h-31l-19 3-18 5-8 3-5-1 2-4 21-7 19-4z" fill="#fff"/>
<path transform="translate(1318,1392)" d="m0 0 3 1 1 3 1 39 4 16 6 10 9 8 8 3h10l7-3h4l-1 5-10 4h-10l-11-4-9-7-6-9-5-12-2-12v-41z" fill="#fff"/>
<path transform="translate(1092,1392)" d="m0 0 3 1v36l-2 15-4 11-6 10-9 8-8 4-5 1h-10l-9-4-2-4 5-1 6 3h11l12-6 7-8 5-11 3-16 1-38z" fill="#fff"/>
<path transform="translate(1658,1091)" d="m0 0 9 1 5 4 2 4v9l-4 6-6 3-9-1-5-4-2-4v-9l4-6z" fill="#fff"/>
<path transform="translate(753,1091)" d="m0 0 8 1 7 6 1 3v7l-4 7-6 3-9-1-6-5-2-9 3-7 5-4z" fill="#fff"/>
<path transform="translate(1200,1422)" d="m0 0 2 1 1 6-3 30-3 7-7-1-5-7-1-9 3-11 6-10z" fill="#fff"/>
<path transform="translate(1190,1227)" d="m0 0h31l21 4 14 5 1 4-4 1-16-5-16-3h-31l-20 4-15 5h-4l1-5 17-6 14-3z" fill="#fff"/>
<path transform="translate(1205,1423)" d="m0 0 5 2 7 8 4 9 1 4v9l-3 6-6 5-3-1-4-8-2-22v-10z" fill="#fff"/>
<path transform="translate(1118,1269)" d="m0 0 4 2-2 4-8 7-10 12-9 16-6 18-2 11-1 23-5-1v-22l3-15 5-15 8-15 11-14 8-8z" fill="#fff"/>
<path transform="translate(1291,1269)" d="m0 0 5 2 7 6 9 11 9 14 5 11 4 12 3 19v14l-1 4-5-1v-18l-3-17-5-15-7-13-9-12-5-6-8-7z" fill="#fff"/>
<path transform="translate(1812,1693)" d="m0 0h9l2 6-3 5-6 4-28 11-14 4 1-7 6-4 13-3 9-6 6-9z" fill="#fff"/>
<path transform="translate(596,1693)" d="m0 0h8l6 2 7 9 7 5 16 4 5 5v5l-15-4-27-11-8-5-1-7z" fill="#fff"/>
<path transform="translate(1285,1250)" d="m0 0 5 1 12 6 12 9 10 10 9 14 2 4-1 4-4-1-6-11-8-10-7-7-14-9-11-6z" fill="#fff"/>
<path transform="translate(1124,1250)" d="m0 0 4 1-1 4-16 8-9 7-6 5-9 12-6 10-4 1-1-3 8-14 11-13 13-10z" fill="#fff"/>
<path transform="translate(1188,1253)" d="m0 0h30l21 2 2 4-1 1-19-1h-42l-1-4 1-1z" fill="#fff"/>
<path transform="translate(774,1140)" d="m0 0h8l5 5 1 6-3 5-4 3-8-1-4-4-1-6 3-6z" fill="#fff"/>
<path transform="translate(1635,1140)" d="m0 0h8l5 6v7l-5 5-7 1-5-3-2-4v-6l4-5z" fill="#fff"/>
<path transform="translate(1645,1446)" d="m0 0h9l4 3-1 5-2 2-7 1-5-2-2-2 1-5z" fill="#fff"/>
<path transform="translate(762,1446)" d="m0 0h10l3 2v6l-6 3-7-1-3-3 1-5z" fill="#fff"/>
<path transform="translate(1635,1172)" d="m0 0 5 1 3 4-1 6-5 3-6-2-1-1v-8z" fill="#fff"/>
<path transform="translate(779,1172)" d="m0 0 5 1 3 3v6l-5 4-5-1-3-3v-6z" fill="#fff"/>
<path transform="translate(785,1199)" d="m0 0h6l2 2-1 7-6 1-3-2v-6z" fill="#fff"/>
<path transform="translate(1626,1199)" d="m0 0h6l2 3-1 5-2 2h-5l-2-2v-6z" fill="#fff"/>
<path transform="translate(735,1443)" d="m0 0h6l2 2-1 5-7 1-2-2 1-5z" fill="#fff"/>
<path transform="translate(1676,1443)" d="m0 0h6l2 2-1 5-7 1-2-2 1-5z" fill="#fff"/>
</svg>
